<?xml version="1.0" encoding="UTF-8"?>
<svg id="Camada_1" data-name="Camada 1" xmlns="http://www.w3.org/2000/svg" viewBox="0 0 88.31 40">
  <defs>
    <style>
      .cls-1 {
        fill: #fff;
      }
    </style>
  </defs>
  <path class="cls-1" d="m14.27,17.23c-1.62-1.61-4.19-1.61-5.79,0-1.6,1.63-1.58,4.28.02,5.91,1.6,1.63,4.21,1.65,5.81.02.03-.03.14-.15.34-.38l-1.93-1.97c-.2.23-.3.36-.31.37-.54.55-1.43.55-1.98,0-.54-.55-.54-1.46-.02-1.99.53-.54,1.41-.54,1.96.02,0,0,1.72,1.75,5.16,5.25-1.41,2.08-3.78,3.4-6.34,3.4-4.22,0-7.66-3.52-7.66-7.85s3.44-7.85,7.66-7.85c2.47,0,4.73,1.21,6.15,3.17-.23.27-.81.94-1.75,2.03l1.9,1.93,3.16-3.63c-1.63-3.78-5.33-6.27-9.47-6.27C5.45,9.38.8,14.14.8,20s4.65,10.62,10.39,10.62c2.61,0,4.77-.83,6.88-2.67,1.92-1.66,2.83-3.97,2.83-3.97l-6.63-6.76Z"/>
  <path class="cls-1" d="m65.06,21.36v5.82h-2.38v-5.95c-.24-1.37-1.45-2.41-2.9-2.41s-2.69,1.07-2.91,2.47v5.89h-2.38v-10.57l1.82,1.16c.93-.79,2.14-1.28,3.46-1.28,2.79,0,5.08,2.14,5.28,4.86h0Zm-24.94-6.09c-.79.41-1.49.96-2.08,1.62-.88-1.22-2.31-2.01-3.92-2.01-2.67,0-4.84,2.16-4.84,4.83s2.16,4.83,4.84,4.83c.87,0,1.68-.23,2.38-.63.26.86.68,1.65,1.22,2.34-1.07.59-2.3.92-3.6.92-4.13,0-7.47-3.34-7.47-7.46s3.35-7.46,7.47-7.46c2.46,0,4.64,1.19,6.01,3.02Zm3.54,11.91c-2.92,0-5.28-2.36-5.28-5.27s2.36-5.27,5.28-5.27,5.28,2.36,5.28,5.27-2.36,5.27-5.28,5.27Zm0-2.34c1.62,0,2.93-1.31,2.93-2.93s-1.31-2.93-2.93-2.93-2.93,1.31-2.93,2.93,1.31,2.93,2.93,2.93Zm6.75-8.2h2.35v10.54h-2.35v-10.54Zm25.52-1.87h-6.71v3.83h6.52v2.38h-6.52v3.82h6.71v2.38h-9.24v-14.78h9.24v2.38Zm4.93,7.11l-3.61-5.25h2.99c.09.15.22.35.39.61.2.3.4.61.62.94.21.32.42.64.62.94.2.3.34.52.42.66l.12.21,2.15-3.35h2.84l-3.55,5.16,3.68,5.38h-2.95l-2.27-3.44-.12.18c-.1.15-.25.38-.45.69-.2.31-.41.63-.64.98-.23.35-.44.67-.64.98-.17.26-.3.47-.39.62h-2.82l3.61-5.29Z"/>
  <path class="cls-1" d="m50.19,13.95c0-.46.17-.86.51-1.2.34-.34.74-.51,1.21-.51s.89.17,1.22.51c.34.33.51.73.51,1.21s-.17.89-.51,1.22c-.33.34-.73.51-1.21.51s-.89-.17-1.22-.51c-.34-.34-.51-.75-.51-1.23Z"/>
</svg>