<?xml version="1.0" encoding="utf-8"?>
<!-- Generator: Adobe Illustrator 28.1.0, SVG Export Plug-In . SVG Version: 6.00 Build 0)  -->
<svg version="1.1" id="Camada_1" xmlns="http://www.w3.org/2000/svg" xmlns:xlink="http://www.w3.org/1999/xlink" x="0px" y="0px"
	 viewBox="0 0 88.3 40" style="enable-background:new 0 0 88.3 40;" xml:space="preserve">
<style type="text/css">
	.st0{fill:url(#SVGID_1_);}
	.st1{fill:#F9FBFE;}
	.st2{fill:url(#SVGID_00000106860754523172078400000001048733861257607335_);}
</style>
<g>
	
		<linearGradient id="SVGID_1_" gradientUnits="userSpaceOnUse" x1="-241.0502" y1="108.4" x2="-261.22" y2="108.4" gradientTransform="matrix(1 0 0 -1 262.01 128.4)">
		<stop  offset="0" style="stop-color:#22E6B8"/>
		<stop  offset="1" style="stop-color:#00C1CE"/>
	</linearGradient>
	<path class="st0" d="M14.3,17.2c-1.6-1.6-4.2-1.6-5.8,0c-1.6,1.6-1.6,4.3,0,5.9c1.6,1.6,4.2,1.7,5.8,0c0,0,0.1-0.2,0.3-0.4l-1.9-2
		c-0.2,0.2-0.3,0.4-0.3,0.4c-0.5,0.6-1.4,0.6-2,0c-0.5-0.6-0.5-1.5,0-2c0.5-0.5,1.4-0.5,2,0c0,0,1.7,1.8,5.2,5.3
		c-1.4,2.1-3.8,3.4-6.4,3.4c-4.2,0-7.7-3.5-7.7-7.9c0-4.3,3.5-7.9,7.7-7.9c2.5,0,4.8,1.2,6.2,3.2c-0.2,0.3-0.8,0.9-1.8,2l1.9,1.9
		l3.2-3.6c-1.6-3.8-5.3-6.3-9.5-6.3C5.5,9.3,0.8,14.1,0.8,20c0,5.9,4.7,10.7,10.4,10.7c2.6,0,4.8-0.8,6.9-2.7c1.9-1.7,2.8-4,2.8-4
		L14.3,17.2z"/>
	<path class="st1" d="M65.1,21.4v5.8h-2.4v-6c-0.2-1.4-1.4-2.4-2.9-2.4c-1.5,0-2.7,1.1-2.9,2.5v5.9h-2.4V16.6l1.8,1.2
		c0.9-0.8,2.1-1.3,3.5-1.3C62.6,16.5,64.9,18.6,65.1,21.4L65.1,21.4z M40.1,15.3c-0.8,0.4-1.5,1-2.1,1.6c-0.9-1.2-2.3-2-3.9-2
		c-2.7,0-4.8,2.2-4.8,4.8s2.2,4.8,4.8,4.8c0.9,0,1.7-0.2,2.4-0.6c0.3,0.9,0.7,1.6,1.2,2.3c-1.1,0.6-2.3,0.9-3.6,0.9
		c-4.1,0-7.5-3.3-7.5-7.5s3.3-7.5,7.5-7.5C36.6,12.2,38.8,13.4,40.1,15.3z M43.7,27.2c-2.9,0-5.3-2.4-5.3-5.3c0-2.9,2.4-5.3,5.3-5.3
		c2.9,0,5.3,2.4,5.3,5.3C48.9,24.8,46.6,27.2,43.7,27.2z M43.7,24.8c1.6,0,2.9-1.3,2.9-2.9c0-1.6-1.3-2.9-2.9-2.9
		c-1.6,0-2.9,1.3-2.9,2.9C40.7,23.5,42,24.8,43.7,24.8z M50.4,16.6h2.3v10.5h-2.3V16.6z M75.9,14.8h-6.7v3.8h6.5V21h-6.5v3.8h6.7
		v2.4h-9.2V12.4h9.2V14.8z M80.9,21.9l-3.6-5.2h3c0.1,0.1,0.2,0.3,0.4,0.6c0.2,0.3,0.4,0.6,0.6,0.9c0.2,0.3,0.4,0.6,0.6,0.9
		c0.2,0.3,0.3,0.5,0.4,0.7l0.1,0.2l2.1-3.4h2.8l-3.6,5.2l3.7,5.4h-3l-2.3-3.4l-0.1,0.2c-0.1,0.1-0.2,0.4-0.4,0.7
		c-0.2,0.3-0.4,0.6-0.6,1c-0.2,0.3-0.4,0.7-0.6,1c-0.2,0.3-0.3,0.5-0.4,0.6h-2.8L80.9,21.9z"/>
	
		<linearGradient id="SVGID_00000130613597094206730700000013747600994109413018_" gradientUnits="userSpaceOnUse" x1="-208.6346" y1="114.4199" x2="-212.0923" y2="114.4199" gradientTransform="matrix(1 0 0 -1 262.01 128.4)">
		<stop  offset="0" style="stop-color:#22E6B8"/>
		<stop  offset="1" style="stop-color:#00C1CE"/>
	</linearGradient>
	<path style="fill:url(#SVGID_00000130613597094206730700000013747600994109413018_);" d="M49.9,14c0-0.5,0.2-0.9,0.5-1.2
		c0.3-0.3,0.7-0.5,1.2-0.5c0.5,0,0.9,0.2,1.2,0.5c0.3,0.3,0.5,0.7,0.5,1.2c0,0.5-0.2,0.9-0.5,1.2c-0.3,0.3-0.7,0.5-1.2,0.5
		c-0.5,0-0.9-0.2-1.2-0.5C50.1,14.9,49.9,14.5,49.9,14z"/>
</g>
</svg>
