<?xml version="1.0" encoding="UTF-8"?>
<svg id="Camada_1" data-name="Camada 1" xmlns="http://www.w3.org/2000/svg" viewBox="0 0 88.31 40">
  <defs>
    <style>
      .cls-1, .cls-2 {
        fill: #fff;
      }

      .cls-2 {
        fill-rule: evenodd;
      }
    </style>
  </defs>
  <path class="cls-2" d="m5.46,10.16c7.28-1.97,14.25-2.08,21.08-1.36,1.26,1.81,2.64,3.55,4.1,5.25-1.48-1.22-2.99-2.47-4.3-3.91-6.26-.57-12.37-.29-18.81,1.22-.83,2.2-1.53,3.82-2.84,5.65,5.42,3.54,9.37,7.88,13.06,12.13,2.5-4.27,5.76-7.25,9.06-9.17-3.59,3.75-6.89,7.59-9.62,11.62-4.55-5.16-9.8-10.03-16.08-14.48,1.67-2.17,3.13-4.51,4.35-6.96Z"/>
  <path class="cls-2" d="m.48,19.8c9.1-2.42,18.44-4.51,28.98-4.95-6.37-.2-25.54-.59-28.98,4.95Z"/>
  <path class="cls-2" d="m7.08,11.29c3.04,5.07,7.93,13.68,10.97,18.75-.89-3.01-5.14-17.34-10.97-18.75Z"/>
  <path class="cls-2" d="m10.32,16.39c2.48-1.91,2.7-2.13,6.82-6.44-2.67,1.34-6.45,3.22-6.82,6.44Z"/>
  <path class="cls-2" d="m23.75,15.74c-2.12-1.54-3.48-2.8-7.6-6.39,3.11,1.45,6.97,2.94,7.6,6.39Z"/>
  <path class="cls-2" d="m26.79,10.89c-3.35,6-6.81,12.39-9.3,18.64.83-3.04,3.62-15.34,9.3-18.64Z"/>
  <path class="cls-1" d="m87.83,13.41l-5.97,14.04c-1.28,3.2-3.1,4.15-5.48,4.15-1.35,0-2.83-.44-3.69-1.21l1.4-2.73c.59.52,1.4.84,2.16.84,1.06,0,1.65-.47,2.16-1.65l.05-.12-5.73-13.33h3.96l3.71,8.97,3.74-8.97h3.69,0Z"/>
  <path class="cls-1" d="m70.25,8.4h3.84v18.24h-3.84V8.4Z"/>
  <path class="cls-1" d="m64.94,13.32c-1.24,0-2.43.43-3.39,1.21-.92-.76-2.1-1.22-3.39-1.21-2.94,0-5.3,2.43-5.3,5.37v7.95h3.86v-7.98c0-.79.62-1.45,1.4-1.48s1.49.63,1.49,1.45v8.01h3.86v-7.98c0-.79.62-1.45,1.4-1.48.82-.02,1.49.63,1.49,1.45v8.01h3.86v-7.95c0-2.94-2.36-5.36-5.3-5.37h0Z"/>
  <path class="cls-1" d="m50.37,18.53h-5.05c.04-.11.09-.23.15-.35.1-.22.26-.44.46-.64s.47-.38.78-.51c.31-.14.7-.21,1.14-.21s.83.07,1.14.21c.32.14.58.31.78.51.2.2.36.42.46.64.06.13.11.25.15.35m4.11,1.72v-.26c0-.53-.09-1.1-.09-1.13h0c-.09-.46-.21-.9-.38-1.33-.33-.84-.8-1.58-1.39-2.2-.59-.62-1.31-1.12-2.13-1.47-.82-.36-1.72-.54-2.67-.54s-1.85.19-2.67.57c-.81.38-1.52.89-2.11,1.51-.59.62-1.06,1.35-1.38,2.17-.14.33-.24.68-.32,1.03,0,0,0,.02,0,.03h0c-.04.16-.28,1.1-.07,2.62h0s.06.29.06.29c.09.43.22.84.39,1.23.36.81.85,1.53,1.46,2.13s1.33,1.09,2.13,1.43c.8.34,1.67.51,2.58.51,1.25,0,2.4-.34,3.42-1.01.07-.04.13-.09.2-.14.29-.2.57-.43.83-.68.22-.21.43-.44.63-.68.39-.48.73-1.03,1.02-1.65l.23-.5h-3.43c-.63,0-.87.18-1.1.4l-.04.04s-.02.02-.03.03l-.02.02c-.17.17-.24.23-.45.37-.31.2-.72.3-1.24.3-.68,0-1.28-.19-1.78-.57-.44-.33-.73-.79-.87-1.37h9.21l.02-.33c.02-.28.02-.56.01-.82"/>
  <path class="cls-1" d="m43.34,16.02h0s-5.24,0-5.24,0c-.49,0-.95.24-1.24.64l-2.14,3.02h4.6c-.74,1.92-2.6,3.29-4.78,3.29-2.83,0-5.12-2.3-5.12-5.12s2.3-5.12,5.12-5.12c1.11,0,2.15.36,2.99.97h4.98c-1.5-2.87-4.5-4.83-7.96-4.83-4.96,0-8.98,4.02-8.98,8.98s4.02,8.98,8.98,8.98,8.98-4.02,8.98-8.98c0-.63-.07-1.24-.19-1.83h0Z"/>
</svg>