<?xml version="1.0" encoding="utf-8"?>
<!-- Generator: Adobe Illustrator 28.1.0, SVG Export Plug-In . SVG Version: 6.00 Build 0)  -->
<svg version="1.1" id="Camada_1" xmlns="http://www.w3.org/2000/svg" xmlns:xlink="http://www.w3.org/1999/xlink" x="0px" y="0px"
	 viewBox="0 0 88.3 40" style="enable-background:new 0 0 88.3 40;" xml:space="preserve">
<style type="text/css">
	.st0{fill:#00A88E;}
</style>
<path class="st0" d="M39.8,20.1c0,3.3-2,4.9-4.6,4.9h-1.6v-2h1.4c1.5,0,2.6-0.8,2.6-2.9c0-2.1-1-3.1-2.6-3.1c-1.6,0-2.7,1-2.7,3v8.3
	h-2.1V15.2h2.1v1.1h0.3c0.7-0.9,1.7-1.4,2.8-1.4C37.9,15,39.8,16.7,39.8,20.1z M25.9,19.2L24.5,19c-1.1-0.1-1.7-0.4-1.7-1
	c0-0.8,0.7-1.2,1.8-1.2c1.1,0,1.8,0.5,1.9,1.3h2C28.4,16.2,27,15,24.6,15c-2.4,0-4,1.2-4,3.1c0,1.5,1,2.5,3.2,2.7l1.4,0.1
	c0.9,0.1,1.5,0.3,1.5,1.1c0,0.8-0.5,1.3-2,1.3c-1.3,0-2-0.6-2.2-1.4h-2.2c0.2,1.8,1.8,3.3,4.4,3.3c2.5,0,4.1-1.3,4.1-3.2
	C28.9,20.2,27.7,19.4,25.9,19.2z M48,21.9c-0.3,0.8-1.1,1.3-2.3,1.3c-1.6,0-2.7-1-2.7-3.2c0-2.1,1.1-3.2,2.7-3.2
	c1.5,0,2.3,0.9,2.4,2.2h-3.8v1.5h5.9v-1c0-2.8-1.9-4.6-4.5-4.6c-2.5,0-4.8,1.7-4.8,5.1s2.4,5.1,4.8,5.1c2,0.1,3.8-1.3,4.3-3.3H48z
	 M14.7,15c-2.3,0-4,1.2-4.3,3.1h2.3c0.2-0.7,0.8-1.2,2-1.2c1.5,0,2,0.8,2,1.8V22c-0.9,1-1.9,1.5-2.9,1.5c-1,0-1.8-0.5-1.8-1.4
	c0-0.9,0.6-1.4,1.6-1.4h1.7v-1.5h-1.7c-2.4,0-3.8,1.2-3.8,3.1c0,1.7,1.3,3,3.5,3c1.1,0,2.2-0.4,3.1-1.1h0.3V25h2.1v-6.5
	C18.8,16.1,17.2,15,14.7,15L14.7,15z M0.3,25h2.1V11.6H0.3L0.3,25L0.3,25z M9.2,15.2H6.6l-3.1,4.1v1.3l3.2,4.4h2.6l-3.7-5L9.2,15.2
	L9.2,15.2z M85.7,15.2l-1.7,3.8c-0.4,0.8-0.7,1.6-0.9,2.4h-0.3c-0.1-0.6-0.5-1.5-1-2.4L80,15.2h-2.3l4.1,8.7l-2,4.4H82l6-13.1H85.7
	L85.7,15.2z M77.2,15.2h-2.6l-3.1,4.1v1.3l3.2,4.4h2.6l-3.7-5L77.2,15.2L77.2,15.2z M63.9,19.2L62.5,19c-1.1-0.1-1.7-0.4-1.7-1
	c0-0.8,0.7-1.2,1.8-1.2c1.1,0,1.8,0.5,1.9,1.3h2C66.5,16.2,65,15,62.7,15c-2.4,0-4,1.2-4,3.1c0,1.5,1,2.5,3.2,2.7l1.4,0.1
	c0.9,0.1,1.5,0.3,1.5,1.1c0,0.7-0.5,1.3-2,1.3c-1.3,0-2-0.6-2.2-1.4h-2.2c0.2,1.8,1.8,3.3,4.4,3.3c2.5,0,4.1-1.3,4.1-3.2
	C66.9,20.2,65.8,19.4,63.9,19.2z M68.3,24.9h2.1V11.6h-2.1V24.9L68.3,24.9z M54.4,16.4H54v-1.1h-2.1v9.7H54v-5.1
	c0-1.7,0.8-2.7,2.4-2.7h1.3V15H57C55.5,15,54.9,15.5,54.4,16.4L54.4,16.4z"/>
</svg>
