<?xml version="1.0" encoding="UTF-8"?>
<svg id="Camada_1" data-name="Camada 1" xmlns="http://www.w3.org/2000/svg" viewBox="0 0 88.31 40">
  <defs>
    <style>
      .cls-1 {
        fill: #fff;
      }
    </style>
  </defs>
  <path class="cls-1" d="m39.82,20.05c0,3.33-2.03,4.9-4.57,4.9h-1.55v-2h1.43c1.52,0,2.55-.82,2.55-2.9s-.96-3.08-2.6-3.08-2.7.96-2.7,3.04v8.34h-2.12v-13.12h2.12v1.13h.3c.67-.89,1.73-1.4,2.84-1.37,2.34,0,4.29,1.69,4.29,5.06Zm-13.9-.87l-1.41-.14c-1.11-.1-1.69-.4-1.69-1.04,0-.77.74-1.21,1.81-1.21s1.81.52,1.87,1.28h2.03c-.08-1.9-1.55-3.06-3.88-3.06s-3.95,1.25-3.95,3.08c0,1.53.96,2.52,3.16,2.74l1.43.14c.86.08,1.45.26,1.45,1.08,0,.75-.54,1.29-1.98,1.29-1.31,0-1.96-.6-2.2-1.4h-2.2c.23,1.83,1.76,3.26,4.4,3.26,2.47,0,4.09-1.31,4.09-3.24,0-1.72-1.13-2.58-2.94-2.77Zm22.09,2.75c-.33.76-1.13,1.34-2.25,1.34-1.55,0-2.7-1-2.7-3.18s1.07-3.22,2.72-3.22c1.47,0,2.31.89,2.4,2.21h-3.81v1.53h5.88v-1.01c0-2.8-1.85-4.61-4.49-4.61-2.45,0-4.81,1.67-4.81,5.1s2.36,5.1,4.81,5.1c2.03.07,3.84-1.29,4.35-3.26h-2.09ZM14.66,14.99c-2.31,0-4.05,1.21-4.25,3.06h2.28c.16-.68.79-1.19,1.98-1.19,1.53,0,2.03.81,2.03,1.79v3.32c-.86.99-1.87,1.45-2.88,1.45s-1.77-.51-1.77-1.41.56-1.41,1.65-1.41h1.69v-1.53h-1.75c-2.42,0-3.77,1.21-3.77,3.06,0,1.73,1.31,3.05,3.46,3.05,1.11-.02,2.18-.4,3.06-1.07h.3v.83h2.12v-6.49c0-2.4-1.63-3.46-4.15-3.46h0ZM.31,24.95h2.12v-13.3H.32v13.3h0Zm8.89-9.72h-2.58l-3.08,4.05v1.27l3.16,4.39h2.62l-3.7-5.03,3.59-4.67h0Zm76.47,0l-1.73,3.85c-.39.78-.71,1.6-.94,2.44h-.3c-.12-.6-.54-1.49-.96-2.42l-1.73-3.87h-2.34l4.06,8.73-2.01,4.39h2.26l6.04-13.12h-2.34,0Zm-8.48,0h-2.58l-3.08,4.05v1.27l3.16,4.39h2.62l-3.71-5.03,3.59-4.68h0Zm-13.24,3.95l-1.41-.14c-1.11-.1-1.69-.4-1.69-1.04,0-.77.74-1.21,1.81-1.21s1.82.52,1.87,1.27h2.03c-.07-1.89-1.55-3.06-3.88-3.06s-3.95,1.24-3.95,3.08c0,1.53.97,2.52,3.16,2.74l1.43.14c.87.08,1.45.27,1.45,1.09,0,.74-.54,1.29-1.98,1.29-1.31,0-1.96-.6-2.2-1.4h-2.2c.23,1.83,1.76,3.25,4.4,3.25,2.47,0,4.09-1.31,4.09-3.24,0-1.71-1.13-2.58-2.94-2.76Zm4.36,5.76h2.12v-13.3h-2.12v13.3h0Zm-13.94-8.58h-.3v-1.13h-2.12v9.71h2.12v-5.08c0-1.73.8-2.74,2.38-2.74h1.34v-2.13h-.77c-1.47,0-2.09.55-2.64,1.37h0Z"/>
</svg>