<?xml version="1.0" encoding="UTF-8"?>
<svg id="Camada_1" data-name="Camada 1" xmlns="http://www.w3.org/2000/svg" viewBox="0 0 88.31 40">
  <defs>
    <style>
      .cls-1 {
        fill: #fff;
        stroke-width: 0px;
      }
    </style>
  </defs>
  <path class="cls-1" d="m43.72,30.6c-.44,0-.84-.03-1.23.01-.21.02-.53.09-.59.23-.09.2-.07.54.05.73.47.74,1,1.44,1.51,2.17-.33.53-.5.59-1.05.27-.96-.55-1.94-1.09-2.87-1.69-.26-.17-.48-.51-.58-.82-.49-1.62-.92-3.26-1.42-4.87-.09-.3-.34-.63-.61-.79-1.52-.94-3.06-1.82-4.6-2.73-.16-.09-.31-.2-.45-.37h1.79s.03-.1.04-.15c-1.56-.74-3.12-1.49-4.76-2.27,1.55-.92,3.04-1.81,4.54-2.7-.02-.04-.03-.09-.05-.13-.96.14-1.93.28-2.98.43,2.61-2.38,5.16-4.72,7.74-7.07.69,1.07,1.36,2.11,2.03,3.16.64,1,1.23,2.03,1.92,2.99.71.99.95,2.09,1.17,3.25.66,3.35.32,6.74.42,10.11,0,.07-.01.14-.02.27Zm-2.15-8.79l.07-.06c-.01-.05-.01-.11-.04-.15-.48-.72-.96-1.43-1.46-2.14-.07-.1-.2-.18-.32-.21-.77-.17-1.54-.32-2.32-.47-.09-.02-.18,0-.38.01.53.61.96,1.18,1.48,1.66.2.18.61.23.9.18.47-.09.82,0,1.15.34.29.29.61.56.92.84Z"/>
  <path class="cls-1" d="m44.83,33.76c.53-.75,1.07-1.48,1.56-2.23.32-.5.05-.93-.54-.92-.41,0-.81,0-1.2,0-.03-.09-.06-.13-.06-.17.02-2.72,0-5.44.1-8.16.04-1.11.22-2.25.55-3.32.27-.87.79-1.68,1.28-2.48,1.1-1.78,2.24-3.53,3.36-5.29.07-.11.15-.21.24-.34,2.53,2.32,5.04,4.61,7.55,6.9-.02.03-.03.06-.05.09-.92-.12-1.83-.24-2.75-.36-.02.04-.04.09-.06.13,1.49.88,2.98,1.76,4.54,2.69-1.62.77-3.18,1.51-4.75,2.26,0,.04.01.08.02.12h1.83s.02.07.02.11c-.52.31-1.03.62-1.55.93-1.2.7-2.41,1.38-3.59,2.11-.25.15-.48.44-.57.72-.46,1.54-.9,3.08-1.3,4.63-.16.62-.45,1.06-1.04,1.37-.82.42-1.6.91-2.39,1.38-.7.41-.7.42-1.2-.17Zm1.72-12.03s.09.08.13.11c.24-.22.49-.44.72-.67.36-.37.8-.71,1.31-.56.69.21,1.06-.11,1.42-.6.29-.39.62-.75.93-1.12l-.07-.1c-.73.12-1.46.25-2.19.36-.39.06-.66.24-.87.58-.36.55-.76,1.07-1.14,1.61-.09.12-.16.26-.24.39Z"/>
  <path class="cls-1" d="m9.15,21.86c.22,0,.37,0,.51,0,5.62,0,11.24,0,16.86,0,1.48,0,2.67.58,3.54,1.76,2.38,3.23,4.74,6.46,7.1,9.7.21.29.43.47.83.5,2.14.17,3.86,1.15,5.17,2.85.03.04.06.1.11.19-.14.01-.25.03-.36.03-2.22,0-4.45,0-6.67,0-.26,0-.42-.08-.58-.29-2.71-3.76-5.43-7.51-8.14-11.27-.19-.27-.39-.37-.72-.37-4.27.01-8.55,0-12.82.01-1.98,0-3.49-.82-4.55-2.49-.06-.1-.12-.2-.17-.3-.04-.08-.06-.16-.13-.32Z"/>
  <path class="cls-1" d="m45.01,36.86c1.25-1.67,2.82-2.73,4.84-2.97.72-.09,1.16-.34,1.58-.93,2.22-3.09,4.48-6.14,6.73-9.21.94-1.29,2.2-1.89,3.8-1.89,5.59.01,11.18,0,16.77,0,.11,0,.23,0,.43,0-.25.66-.63,1.17-1.08,1.62-1.06,1.06-2.36,1.5-3.85,1.49-4.24-.02-8.49,0-12.73-.01-.33,0-.53.1-.72.37-2.71,3.76-5.42,7.52-8.15,11.27-.1.14-.32.28-.48.28-2.31.02-4.63.01-6.94.01-.04,0-.08-.01-.2-.03Z"/>
  <path class="cls-1" d="m38.45,4.08c.88.6,1.66,1.12,2.45,1.66-.54.74-.34,1.41-.03,2.16.3.73.75.86,1.42.75.14-.02.29-.03.43-.06.26-.05.38-.17.38-.47,0-.43.06-.87.14-1.3.1-.53-.09-.9-.5-1.19-.09-.07-.18-.15-.31-.25.57-.75,1.14-1.49,1.74-2.28.57.8,1.11,1.55,1.64,2.29-.02.04-.03.08-.05.09-.78.43-.89,1.11-.75,1.9.05.29.03.58.04.87,0,.24.11.37.36.39.39.03.78.1,1.17.11.13,0,.33-.09.4-.2.25-.43.5-.86.66-1.32.16-.47.06-.95-.34-1.35.83-.52,1.66-1.04,2.54-1.6-.25.92-.47,1.78-.71,2.64-.43,1.57-.88,3.14-1.3,4.72-.19.69-.18.75-.89.62-1.83-.31-3.67-.24-5.51-.15-.34.02-.68.09-1.03.13-.64-2.71-1.27-5.38-1.94-8.18Z"/>
  <path class="cls-1" d="m29.03,29.43h-.44c-3.81,0-7.61,0-11.42,0-1.89,0-3.94-1.41-4.48-3.1.12,0,.22-.02.33-.02,4.45,0,8.9,0,13.35,0,.28,0,.45.09.61.32.65.92,1.32,1.82,2.05,2.81Z"/>
  <path class="cls-1" d="m59.31,29.4c.74-1.01,1.44-1.98,2.16-2.93.09-.12.36-.16.54-.16,3.45,0,6.91,0,10.36,0,1.07,0,2.13,0,3.3,0-.17.32-.29.6-.46.84-1.04,1.47-2.45,2.27-4.27,2.27-3.73,0-7.46,0-11.19,0-.13,0-.25-.01-.45-.02Z"/>
  <path class="cls-1" d="m16.16,30.76c.21,0,.35,0,.5,0,4.29,0,8.57,0,12.86,0,.36,0,.59.11.79.4.62.88,1.26,1.75,1.94,2.68-.21.01-.35.03-.48.03-3.64,0-7.29.01-10.93,0-2.06-.01-3.55-.99-4.54-2.77-.04-.07-.07-.16-.13-.33Z"/>
  <path class="cls-1" d="m56.06,33.84c.75-1.03,1.45-1.98,2.15-2.92.06-.07.2-.12.3-.12,4.52,0,9.04,0,13.73,0-.41.57-.71,1.11-1.12,1.54-.96,1-2.16,1.54-3.56,1.54-3.7,0-7.4,0-11.1,0-.1,0-.2-.01-.4-.03Z"/>
  <path class="cls-1" d="m37.61,9.96c-1.37,1.3-2.7,2.56-4.13,3.91.08-3.03.15-5.92.22-8.81.03-.01.06-.02.09-.03,1.26,1.63,2.53,3.27,3.82,4.93Z"/>
  <path class="cls-1" d="m54.74,5.13c.07,2.9.15,5.79.22,8.79-1.4-1.34-2.75-2.62-4.11-3.92,1.27-1.65,2.52-3.26,3.77-4.88.04,0,.08,0,.12.01Z"/>
</svg>