<svg id="Camada_1" data-name="Camada 1" xmlns="http://www.w3.org/2000/svg" viewBox="0 0 116 40"><defs><style>.cls-1{fill:#fff;}</style></defs><path class="cls-1" d="M90.23,20.08a4.46,4.46,0,0,0,2.24-4.19,5,5,0,0,0-1.85-4.3,8.46,8.46,0,0,0-5.17-1.39H75.84c-.39,0-.59.21-.59.62v19a.48.48,0,0,0,0,.17.52.52,0,0,0,.59.44H86.25A8.55,8.55,0,0,0,91.43,29a4.65,4.65,0,0,0,1.87-4.06A4.75,4.75,0,0,0,90.23,20.08Zm-10.06-5.5h5.28c1.41,0,2.11.6,2.11,1.81s-.7,1.69-2.11,1.69H80.17ZM86.25,26H80.17V22.45h6.08c1.41,0,2.11.75,2.11,1.87S87.66,26,86.25,26Z"/><path class="cls-1" d="M52.59,10.63A.52.52,0,0,0,52,10.2H48.12a.52.52,0,0,0-.4.62v7.26H40.06V10.82c0-.41-.18-.62-.59-.62H35.73c-.39,0-.59.21-.59.62v18.9a.48.48,0,0,0,0,.17.52.52,0,0,0,.59.44h3.74a.38.38,0,0,0,.15,0,.53.53,0,0,0,.44-.61V22.45h7.66v7.23a.48.48,0,0,0,0,.17.52.52,0,0,0,.59.44H52a.38.38,0,0,0,.15,0,.53.53,0,0,0,.44-.61l0-18.86A.61.61,0,0,0,52.59,10.63Z"/><path class="cls-1" d="M30.83,18.6a3.07,3.07,0,0,0-.07-.42,3.55,3.55,0,0,0-.08-.47,4.87,4.87,0,0,0-.15-.53c0-.07-.09-.08-.18,0l-.72.69a3.64,3.64,0,0,1-.5.46c-.2.16-.37.35-.56.53a1.8,1.8,0,0,1-.2.19c-.07.08-.13.06-.2,0l-.73-.72-1-1-.67-.64c-.16-.14-.3-.29-.45-.44h0a.11.11,0,0,1,0-.16.31.31,0,0,1,.09-.11c.28-.24.52-.52.8-.76.46-.4.89-.85,1.33-1.28l.38-.39.6-.55a.18.18,0,0,0,0-.25l-.53-.7c-.07-.09-.15-.16-.22-.24a8.08,8.08,0,0,0-.57-.7c-.29-.3-.6-.58-.91-.86-.15-.14-.31-.27-.47-.4l-.33-.25c-.17-.13-.34-.27-.53-.39l-.82-.49L24,8.59a6.54,6.54,0,0,0-.59-.3c-.28-.14-.56-.28-.85-.4l-.74-.28-.68-.22-.73-.19L20,7.1l-.61,0L19,7l-.57-.06H15.78L15.19,7l-.49.14h-.31l-.26.07H14l-.43.15h-.19L13,7.5l-.64.24c-.18.06-.34.14-.51.21l-.36.15-.6.3-.48.26-.22.14c-.15.08-.29.17-.43.26l-.3.21L9,9.61c-.05,0,0,0-.13.13s-.26.18-.45.33a4.61,4.61,0,0,0-.54.49L7,11.47c-.16.17-.27.32-.45.54s-.37.51-.51.66-.13.19,0,.33l.46.48c.13.13.28.24.42.36.39.35.75.73,1.12,1.09l1.08,1.13c.28.27.54.55.84.79s.57.53.84.82.57.58.86.87c.07.07.16.12.23.2.25.24.6.61.73.74s.29.23.41.36c.29.28.51.49.85.86s.67.69,1,1l.34.32a11,11,0,0,0,1,.93c.13.11.24.24.36.36l.52.54a.22.22,0,0,0,.27,0l.81-.79c.1-.09.21-.15.3-.24l.62-.6L19.3,22l0,0a.11.11,0,0,1,.14,0l.67.62.17.16.88.87.87.89.32.3c0,.05.05.1,0,.16l-.32.31c-.24.22-.49.43-.72.65l-.81.81L19,28.25l-.51.49-.37.36-.78.7c-.12.12-.13.15-.27,0s-.26-.3-.41-.44a7.27,7.27,0,0,0-1-1,7.69,7.69,0,0,1-.66-.62c-.25-.26-.5-.53-.76-.79l-.43-.41a3.81,3.81,0,0,0-.43-.37,7.84,7.84,0,0,1-.67-.64l-.75-.78c-.12-.13-.23-.21-.38-.36s-.22-.2-.49-.43-.57-.55-.77-.75l-.58-.59a2.75,2.75,0,0,0-.27-.24c-.07-.06-.13-.15-.2-.21a5.68,5.68,0,0,0-.51-.47,7.69,7.69,0,0,1-.66-.62C7.72,20.72,7.37,20.35,7,20a6.41,6.41,0,0,0-.55-.49,9.45,9.45,0,0,1-.79-.76L5,18.08C5,18,4.86,18,4.8,17.9l-.47-.48-.26-.23q-.15-.09-.15.06l-.06.27a.54.54,0,0,1-.07.27.72.72,0,0,0-.08.4v.06c0,.13-.07.36-.07.39V20a11.36,11.36,0,0,0,0,1.65v.84l.06.17a1,1,0,0,0,.07.42.78.78,0,0,0,.08.4v.07a.4.4,0,0,0,.12.29c.07.05.13.06.19,0l.75-.72C5,23,5,23.05,5.1,23a4.12,4.12,0,0,0,.33-.28c.22-.22.45-.44.67-.67l0,0a.11.11,0,0,1,.15,0l.66.58c.4.36.76.77,1.14,1.15.09.1.21.18.3.27l.84.83a.15.15,0,0,1,0,.18l-.1.12c-.25.22-.48.48-.75.68a8.7,8.7,0,0,0-.69.67c-.1.09-.18.2-.28.3a12.12,12.12,0,0,1-1,.9,3.33,3.33,0,0,0-.46.46.15.15,0,0,0,0,.18c.12.17.31.48.34.52s.05-.06.11.11.22.25.32.39a3,3,0,0,0,.33.38c.07.09.14.19.22.28l.53.47.07.05a1.29,1.29,0,0,1,.17.16.73.73,0,0,1,.09.09l.31.23.45.4.28.19.35.26c.08.06.15.18.23.18l.31.16.94.51,1,.46c.26.11.56.21.81.3s.53.17.75.23a2.65,2.65,0,0,0,.66.16,2.71,2.71,0,0,0,.41.09c.15,0,.28.08.44.08a1.55,1.55,0,0,1,.36.08h3l.32-.08a.91.91,0,0,0,.33,0,2.26,2.26,0,0,1,.5-.08,1.86,1.86,0,0,1,.47-.09h.26l.57-.15h.06a1.36,1.36,0,0,1,.41-.15l.34-.1.84-.34.33-.14,1-.46.14-.08a2.72,2.72,0,0,1,.51-.32.21.21,0,0,0,.1-.06l.21-.14.37-.26.43-.34h0l.08-.06.33-.26.25-.24c.13-.12.26-.22.38-.34a3.06,3.06,0,0,0,.36-.36l.32-.36.15-.15.25-.3L28,29c.16-.2.34-.48.46-.61s.12-.19,0-.3c-.28-.29-.69-.68-.86-.85s-.44-.43-.5-.5-.16-.11-.22-.17l-.38-.4c-.16-.17-.33-.33-.5-.49l-.48-.45-.86-.85a8,8,0,0,0-.9-.85,3.06,3.06,0,0,1-.36-.36L23,22.78c-.19-.19-.39-.36-.57-.54l-.88-.88c-.14-.13-.27-.28-.41-.41l-.42-.41c-.08-.08-.21-.18-.27-.23s-.1-.11-.15-.16L20.21,20,20.13,20c-.26-.25-.52-.5-.77-.76l-1-1-1-1a.15.15,0,0,0-.23,0L16.3,18l-.3.17-.84.8s0,0,0,0A.12.12,0,0,1,15,19c-.39-.3-.71-.7-1.12-1a3.68,3.68,0,0,1-.39-.4L13,17.11l-.52-.49c-.1-.09-.09-.1-.29-.3s-.31-.1,0-.39.6-.6.93-.87a4,4,0,0,0,.6-.57c.15-.15.29-.31.44-.45.3-.29.54-.5.91-.84s.64-.67,1-1l1.1-1c.06-.06.11,0,.17,0,.36.34.65.7,1,1,.51.42.95.91,1.43,1.36.29.28.41.46.88.86s.9.85,1.34,1.29l.49.55.46.41c.2.18.34.33.58.56s.36.37.72.68.57.58,1,.94.82.78,1.22,1.18c.18.17.35.36.53.53l.72.51,1,1,.76.75.74.68.26.25c.09.08.14.08.18-.05a1.72,1.72,0,0,0,.1-.39c0-.1-.05-.23,0-.31a.49.49,0,0,0,0-.25V22.4a2,2,0,0,1,0-.59,2.11,2.11,0,0,0,.06-.61v0a19.29,19.29,0,0,0,0-2.15Z"/><path class="cls-1" d="M72.58,10.82c0-.41-.17-.62-.58-.62H68.3c-.39,0-.59.21-.59.62v12a3.45,3.45,0,0,1-.93,2.61,3.77,3.77,0,0,1-2.71.89,4.4,4.4,0,0,1-2.9-.91,3.14,3.14,0,0,1-1.12-2.59v-12a.43.43,0,0,0,0-.16.53.53,0,0,0-.61-.46H55.73c-.4,0-.59.21-.59.62v12a7.55,7.55,0,0,0,2.24,5.79Q59.6,30.71,64,30.7h.07c2.93,0,5.14-.7,6.56-2.16a8,8,0,0,0,2-5.78Z"/><path class="cls-1" d="M109,20.08a4.82,4.82,0,0,0,2.26-4.5,4.68,4.68,0,0,0-1.87-4,8.63,8.63,0,0,0-5.18-1.38H95.75c-.4,0-.59.21-.59.62V14c0,.39.18.59.59.59h8.45c1.4,0,2.11.52,2.11,1.71s-.71,1.79-2.11,1.79H98.05a.53.53,0,0,0-.44.61v3.18c0,.39.18.58.59.58H105c1.4,0,2.1.61,2.1,1.82S106.4,26,105,26H95.33a.55.55,0,0,0-.47.62v3.15a.33.33,0,0,0,0,.14.55.55,0,0,0,.62.47H105A8.52,8.52,0,0,0,110.2,29a4.67,4.67,0,0,0,1.87-4.06A4.75,4.75,0,0,0,109,20.08Z"/></svg>