<?xml version="1.0" encoding="UTF-8"?>
<svg id="Camada_1" data-name="Camada 1" xmlns="http://www.w3.org/2000/svg" viewBox="0 0 88.31 40">
  <defs>
    <style>
      .cls-1, .cls-2 {
        fill: #fff;
      }

      .cls-2 {
        fill-rule: evenodd;
      }
    </style>
  </defs>
  <path class="cls-2" d="m79.89,26.68c2.11,1.71,5.2,1.39,6.92-.72.26-.32.48-.68.65-1.05,1.13-2.47.05-5.39-2.42-6.52-.38-.17-.78-.3-1.18-.37l-3.96,8.66Z"/>
  <path class="cls-1" d="m9.16,25.28v-2.24H2.77v-11.7H.41v13.94h8.75Zm6.13-1.75c-1.4,0-2.67-1.06-2.67-3.05s1.28-3.01,2.67-3.01,2.67,1.02,2.67,3.01-1.26,3.05-2.67,3.05Zm0-8.12c-2.85,0-4.95,2.14-4.95,5.07s2.1,5.09,4.96,5.09,4.97-2.14,4.97-5.09-2.1-5.07-4.98-5.07Zm11.39,8.12c-1.4,0-2.67-1.06-2.67-3.05s1.28-3.01,2.67-3.01,2.67,1.02,2.67,3.01-1.26,3.05-2.67,3.05Zm0-8.12c-2.85,0-4.96,2.14-4.96,5.07s2.1,5.09,4.96,5.09,4.98-2.14,4.98-5.09-2.1-5.07-4.98-5.07Zm9.44,13.61v-4.82c.49.73,1.53,1.32,2.91,1.32,2.75,0,4.5-2.16,4.5-5.03s-1.59-4.99-4.42-4.99c-1.47,0-2.58.69-3.05,1.51v-1.3h-2.2v13.31s2.26,0,2.26,0Zm5.13-8.53c0,1.83-1.06,3.01-2.58,3.01s-2.58-1.18-2.58-3.01,1.08-2.97,2.58-2.97,2.58,1.18,2.58,2.97Zm6.74,4.8v-9.58h-2.26v9.58h2.26Zm-2.62-12.94c0,.83.67,1.47,1.47,1.47s1.49-.65,1.49-1.47c0-.82-.67-1.49-1.49-1.49,0,0,0,0,0,0-.81,0-1.47.67-1.47,1.49Zm8.11,5.41v-4.33h2.46c1.49,0,2.4.85,2.4,2.18s-.9,2.14-2.4,2.14h-2.46Zm2.81,2.08c2.67,0,4.44-1.79,4.44-4.25s-1.77-4.25-4.44-4.25h-5.17v13.94h2.36v-5.45h2.81Zm7.34.61c0-1.85,1.06-3.03,2.6-3.03s2.54,1.18,2.54,3.03-1.04,3.13-2.54,3.13c-1.59,0-2.6-1.3-2.6-3.13Zm5.15,3.46c0,.65.06,1.16.1,1.38h2.18c-.02-.2-.1-.96-.1-1.75v-7.83h-2.22v1.26c-.26-.65-1.12-1.53-2.81-1.53-2.75,0-4.58,2.24-4.58,5.01s1.81,5.09,4.62,5.09c1.38,0,2.38-.71,2.81-1.63Zm7.9,5.25l6.1-13.45h-2.42l-2.58,6.06-2.75-6.06h-2.58l4.09,8.44-2.3,5.01h2.44Z"/>
</svg>