<?xml version="1.0" encoding="utf-8"?>
<!-- Generator: Adobe Illustrator 28.1.0, SVG Export Plug-In . SVG Version: 6.00 Build 0)  -->
<svg version="1.1" id="Camada_1" xmlns="http://www.w3.org/2000/svg" xmlns:xlink="http://www.w3.org/1999/xlink" x="0px" y="0px"
	 viewBox="0 0 88.3 40" style="enable-background:new 0 0 88.3 40;" xml:space="preserve">
<style type="text/css">
	.st0{fill-rule:evenodd;clip-rule:evenodd;fill:#FFFFFF;}
</style>
<path class="st0" d="M26.3,5.3c0-1.8,1.5-3.3,3.3-3.3h29.2C60.6,2,62,3.5,62,5.3v19h-9.7v2.4H62v2h-7.2v2.4H62v2.1h-9.7v2.4h9.6
	C61.5,37,60.3,38,58.8,38h-8.5V24.2h-2.7l-3.4,5.4l-3.5-5.4h-2.6V34h2.8l0.2-4l3.2,4l3.4-4V38h-18c-1.8,0-3.3-1.5-3.3-3.3L26.3,5.3
	L26.3,5.3z"/>
</svg>
