<?xml version="1.0" encoding="UTF-8"?>
<svg id="Camada_1" data-name="Camada 1" xmlns="http://www.w3.org/2000/svg" viewBox="0 0 88.31 40">
  <defs>
    <style>
      .cls-1 {
        fill: #fff;
      }
    </style>
  </defs>
  <path class="cls-1" d="m15.84,16.5c.93-.03,1.83.29,2.52.9.11.1.21.2.3.3l1.68-1.43c-.16-.18-.32-.35-.5-.5-1.12-.99-2.58-1.52-4.08-1.47-1.5.05-2.92.68-3.96,1.75-.2.2-.37.42-.53.65-1.08-1.58-2.9-2.61-4.97-2.61-3.31,0-6,2.65-6,5.93s2.68,5.93,6,5.93c2.07,0,3.89-1.04,4.97-2.61.17.24.35.46.56.67,1.05,1.06,2.47,1.68,3.97,1.72s2.96-.49,4.07-1.49c.17-.15.32-.31.47-.48l-1.68-1.43c-.09.1-.18.2-.28.29-.68.62-1.58.95-2.51.92-.93-.03-1.81-.41-2.45-1.06s-1.01-1.53-1.01-2.45c0-.92.35-1.8,1-2.46.64-.66,1.52-1.05,2.44-1.08Zm-9.54,7.27c-2.09,0-3.78-1.67-3.78-3.74s1.69-3.74,3.78-3.74,3.78,1.67,3.78,3.74-1.69,3.74-3.78,3.74Z"/>
  <path class="cls-1" d="m23.93,11.84h-2.21v9.39c0,2.44,2,4.41,4.46,4.41h1.07v-2.05h-1.07c-1.24,0-2.25-1-2.25-2.22v-4.8h3.32v-2.05h-3.32v-2.68Z"/>
  <path class="cls-1" d="m37.74,15.84c-.9-.95-2.15-1.53-3.66-1.53-3.19,0-5.77,2.56-5.77,5.72s2.58,5.71,5.77,5.72c1.51,0,2.76-.58,3.66-1.53v1.32h2.14v-11.01h-2.14v1.32Zm-3.65,7.72c-1.97,0-3.57-1.58-3.57-3.53s1.6-3.53,3.57-3.53,3.57,1.58,3.57,3.53-1.6,3.53-3.57,3.53Z"/>
  <polygon class="cls-1" points="88.01 14.53 85.32 14.53 82.59 18.21 79.87 14.53 77.18 14.53 81.25 20.03 77.18 25.54 79.87 25.54 82.59 21.85 85.32 25.54 88.01 25.54 83.94 20.03 88.01 14.53"/>
  <path class="cls-1" d="m70.98,14.55v10.99h2.22v-8.9h3.22v-2.08h-3.22c0-1.97,1.04-2.68,2.29-2.68h.93v-2.06h-.93c-2.73,0-4.51,1.77-4.51,4.74Z"/>
  <path class="cls-1" d="m55.46,9.56c-8.7,0-10.56,1.84-10.56,10.44s1.86,10.44,10.56,10.44,10.56-1.84,10.56-10.44-1.86-10.44-10.56-10.44Zm5.23,9.99c1.28-1.27,1.99-2.45,2.08-3.3.76.14,1.45.6,1.47,1.42.03,1.06-.93,2.55-2.56,4.02.73,1.92.81,3.51.12,4.24-.31.31-.73.41-1.18.41.05-1.01-.19-2.14-.64-3.3-.92.65-1.89,1.24-2.87,1.74,1.75,1.47,3.59,2.36,4.87,1.43-.62.7-1.89,2.12-2.82,2.12-1.46,0-3.12-1.05-4.64-2.44-1.42.5-2.74.75-3.76.71-.76-.03-1.35-.24-1.7-.65-.48-.55-.28-1.16-.24-1.25,1.24.18,2.65-.04,4.07-.48-.85-.97-1.59-1.98-2.13-2.84-1.19,1.13-3.06,3.41-2.04,4.67-.16-.17-1.59-1.97-1.63-2.04-.68-1.15.35-3.05,2.41-4.95-.73-1.61-1.02-2.76-1.02-3.63,0-1.75,1.11-2.53,2.2-3.41-.93,1.34.07,4.01.76,5.48.98-.69,2.1-1.35,3.26-1.91-1.47-1.3-2.94-2.13-4.06-2.13.07-.98.59-1.64,1.58-1.63,1.45.02,3.18,1.22,4.77,2.82,1.31-.45,2.57-.73,3.61-.73.97,0,1.71.19,2.3.92l1.3,1.61c-1.1-.93-3.25-.63-5.48.16.79,1,1.48,2.02,1.98,2.92Z"/>
  <path class="cls-1" d="m52.71,19.75c.6.94,1.59,2.23,2.72,3.43,1.34-.66,2.59-1.44,3.58-2.18-.68-1.23-1.53-2.42-2.44-3.49-1.49.7-2.88,1.53-3.86,2.24Z"/>
</svg>