<?xml version="1.0" encoding="utf-8"?>
<!-- Generator: Adobe Illustrator 28.1.0, SVG Export Plug-In . SVG Version: 6.00 Build 0)  -->
<svg version="1.1" id="Camada_1" xmlns="http://www.w3.org/2000/svg" xmlns:xlink="http://www.w3.org/1999/xlink" x="0px" y="0px"
	 viewBox="0 0 88.3 40" style="enable-background:new 0 0 88.3 40;" xml:space="preserve">
<style type="text/css">
	.st0{fill-rule:evenodd;clip-rule:evenodd;fill:#FFFFFF;}
	.st1{fill:#0C34F0;}
	.st2{opacity:0.35;fill-rule:evenodd;clip-rule:evenodd;fill:#FFFFFF;enable-background:new    ;}
</style>
<g>
	<path class="st0" d="M84.8,20.2c0,2.9-2.3,5.2-5.2,5.2c-2.9,0-5.2-2.3-5.2-5.2c0-2.9,2.3-5.2,5.2-5.2
		C82.4,14.9,84.8,17.2,84.8,20.2L84.8,20.2z M84.8,26.6c-1.5,1.2-3.3,1.8-5.2,1.8c-4.6,0-8.3-3.7-8.3-8.3s3.7-8.3,8.3-8.3
		c1.9,0,3.7,0.6,5.2,1.8v-1.6h3.1v8l0,0l0,0v8h-3.1V26.6z M64,8.2h-1.5v13.7c0,3.5,2.8,6.3,6.3,6.3c0,0,0,0,0,0h1.3l0-3.1h-1.3
		c-1.8,0-3.3-1.5-3.3-3.3v-6.8h4.5V12h-4.5V8.2H64z M58.3,23.5c-1,1.1-2.4,1.8-3.9,1.8c-2.9,0-5.2-2.3-5.2-5.2
		c0-2.9,2.3-5.2,5.2-5.2c1.6,0,3,0.7,3.9,1.8l2.3-2c-1.5-1.8-3.8-2.9-6.3-2.9c-4.6,0-8.3,3.7-8.3,8.3s3.7,8.3,8.3,8.3
		c2.5,0,4.8-1.1,6.3-2.9L58.3,23.5L58.3,23.5z"/>
	<path class="st0" d="M40.8,25.3c2.9,0,5.2-2.3,5.2-5.2c0-2.9-2.3-5.2-5.2-5.2s-5.2,2.3-5.2,5.2C35.6,23,37.9,25.3,40.8,25.3z
		 M40.8,28.4c4.6,0,8.3-3.7,8.3-8.3s-3.7-8.3-8.3-8.3s-8.3,3.7-8.3,8.3S36.2,28.4,40.8,28.4z"/>
	<path class="st1" d="M0.4,20C0.4,9,2.8,6.6,13.8,6.6S27.2,9,27.2,20s-2.4,13.4-13.4,13.4S0.4,31,0.4,20z"/>
	<path class="st2" d="M19.8,17.7c1.2-1.7,2-3.2,2.2-4.4c0.8,0,1.4,0.2,1.7,0.6c1,1.1,0.1,3.7-2,6.4c1.9,2.9,2.6,5.5,1.5,6.5
		c-0.4,0.4-1,0.6-1.8,0.5c-0.1-1.2-0.8-2.8-1.9-4.6c-0.5,0.5-1.1,1.1-1.6,1.5c-4.7,4.1-9.6,6-11.1,4.3c-0.4-0.4-0.5-1-0.4-1.8
		c2.2,0,5.9-1.9,9.4-4.9c0.6-0.6,1.2-1.1,1.8-1.7c-0.5-0.6-1.1-1.3-1.7-1.9c-3.3-3.3-6.8-5.4-9-5.6C6.9,12,7.1,11.4,7.5,11
		c1.6-1.6,6.4,0.7,10.8,5.1C18.8,16.6,19.3,17.1,19.8,17.7L19.8,17.7z"/>
	<path class="st0" d="M4.7,26.1l2.1,2.4c-0.9-1.1-0.1-3.5,1.9-6.2c0.5,0.6,1,1.1,1.5,1.7c4.4,4.4,9.2,6.7,10.8,5.1
		c0.1-0.1,0.1-0.1,0.1-0.2l2.2-2.2l0,0c0,0-0.1,0.1-0.1,0.1c-1.6,1.6-6.4-0.7-10.8-5.1c-0.6-0.6-1.2-1.2-1.7-1.9
		c0.6-0.6,1.2-1.2,1.8-1.7c4.7-4.1,9.6-6,11.1-4.3c0,0,0.1,0.1,0.1,0.1l0,0l-2.1-2.3c0-0.1-0.1-0.1-0.1-0.2
		c-1.5-1.7-6.4,0.2-11.1,4.3c-0.6,0.5-1.1,1-1.6,1.5c-1.8-2.8-2.4-5.2-1.4-6.3l-2.3,2.3l0,0c-1,1.1-0.3,3.6,1.6,6.5
		C4.7,22.5,3.8,25,4.7,26.1L4.7,26.1L4.7,26.1z"/>
</g>
</svg>
