<?xml version="1.0" encoding="utf-8"?>
<!-- Generator: Adobe Illustrator 28.1.0, SVG Export Plug-In . SVG Version: 6.00 Build 0)  -->
<svg version="1.1" id="Camada_1" xmlns="http://www.w3.org/2000/svg" xmlns:xlink="http://www.w3.org/1999/xlink" x="0px" y="0px"
	 viewBox="0 0 88.3 40" style="enable-background:new 0 0 88.3 40;" xml:space="preserve">
<style type="text/css">
	.st0{fill-rule:evenodd;clip-rule:evenodd;fill:#62CBC1;}
	.st1{fill:#62CBC1;}
</style>
<g>
	<path class="st0" d="M10,29.5h10.8c0.1,0,0.2-0.2,0.1-0.3l-3.2-3.7c1.2-1.7,1.9-3.9,1.8-6c-0.1-2.1-0.9-4.2-2.3-5.8
		c-1.4-1.6-3.3-2.7-5.4-3.1c-2.1-0.4-4.3-0.1-6.2,0.9S2.2,14.1,1.3,16s-1.1,4.1-0.6,6.2c0.5,2.1,1.7,3.9,3.4,5.2S7.9,29.5,10,29.5
		L10,29.5z M4.8,22.7c-0.4-0.8-0.6-1.7-0.6-2.6c0-0.8,0.1-1.5,0.4-2.3c0.3-0.7,0.7-1.4,1.3-1.9c0.6-0.6,1.2-1,1.9-1.3
		c0.7-0.3,1.5-0.4,2.3-0.4s1.5,0.1,2.3,0.4c0.7,0.3,1.4,0.7,1.9,1.3c0.6,0.5,1,1.2,1.3,1.9c0.3,0.7,0.4,1.5,0.4,2.3
		c0,0.3,0,0.7-0.1,1h-1.6l-6.4,0c-0.1,0-0.2,0.2-0.1,0.3l4.2,4.3C10.8,25.9,9.9,26,9,25.8c-0.9-0.2-1.8-0.5-2.5-1.1
		S5.2,23.5,4.8,22.7L4.8,22.7z"/>
	<path class="st0" d="M32.5,23.6l-0.5,0.5c-0.1,0.1-0.1,0.1-0.2,0l-0.6-0.6c-0.4,0.2-1,0.4-1.5,0.4c-0.9,0-1.6-0.2-2.1-0.7
		c-0.5-0.5-0.7-1.2-0.7-2v-1.8c0-0.9,0.2-1.5,0.7-2s1.2-0.7,2.1-0.7s1.6,0.2,2.1,0.7c0.5,0.5,0.7,1.2,0.7,2v1.8
		c0,0.7-0.2,1.3-0.5,1.8l0.6,0.6C32.6,23.5,32.6,23.6,32.5,23.6z M28.1,21.1c0,1.1,0.5,1.6,1.6,1.6c0.2,0,0.5,0,0.7-0.1l-0.7-0.7
		c-0.1-0.1-0.1-0.1,0-0.2l0.5-0.5c0.1-0.1,0.1-0.1,0.2,0l0.8,0.8c0.1-0.3,0.2-0.5,0.2-0.9v-1.8c0-0.5-0.1-1-0.4-1.2
		c-0.3-0.3-0.7-0.4-1.2-0.4c-1,0-1.6,0.5-1.6,1.6C28.1,19.2,28.1,21.1,28.1,21.1z"/>
	<path class="st1" d="M39,23.1c0.5-0.5,0.8-1.1,0.8-1.9v-4.5c0-0.1,0-0.1-0.2-0.1h-0.9c-0.1,0-0.2,0-0.2,0.1v4.4
		c0,0.5-0.1,0.9-0.4,1.2c-0.3,0.3-0.6,0.4-1.1,0.4s-0.8-0.1-1.1-0.4c-0.2-0.3-0.4-0.7-0.4-1.2v-4.4c0-0.1,0-0.1-0.2-0.1h-0.9
		c-0.1,0-0.2,0-0.2,0.1v4.5c0,0.8,0.2,1.4,0.7,1.9c0.5,0.5,1.2,0.7,2,0.7S38.5,23.6,39,23.1z"/>
	<path class="st0" d="M42.1,23.7h-1c-0.1,0-0.2-0.1-0.1-0.2l2.4-6.9c0-0.1,0.1-0.1,0.2-0.1h1.1c0.1,0,0.1,0,0.2,0.1l2.4,6.9
		c0,0.1,0,0.2-0.1,0.2h-1c-0.1,0-0.2,0-0.2-0.1l-0.5-1.5h-2.7l-0.5,1.5C42.2,23.7,42.2,23.7,42.1,23.7L42.1,23.7z M44.1,17.9l-1,3.1
		h2.1L44.1,17.9C44.2,17.9,44.1,17.9,44.1,17.9z"/>
	<path class="st1" d="M48.8,23.7h0.9c0.1,0,0.1,0,0.1-0.1v-2.3c0-0.8,0-1.7-0.1-2.7h0c0.3,0.7,0.7,1.3,1.1,2l1.9,3.1
		c0,0.1,0.1,0.1,0.2,0.1h1c0.1,0,0.2,0,0.2-0.1v-6.8c0-0.1,0-0.1-0.2-0.1H53c-0.1,0-0.2,0-0.2,0.1v2.4c0,1,0,1.9,0.1,2.7h0
		c-0.2-0.3-0.5-0.9-1-1.8l-2-3.4c0-0.1-0.1-0.1-0.2-0.1h-1c-0.1,0-0.1,0-0.1,0.1v6.8C48.6,23.7,48.7,23.7,48.8,23.7z"/>
	<path class="st1" d="M55.6,16.6h5.2c0.1,0,0.2,0,0.2,0.1v0.8c0,0.1,0,0.1-0.2,0.1h-2v5.9c0,0.1,0,0.1-0.1,0.1h-0.9
		c-0.1,0-0.1,0-0.1-0.1v-5.9h-2c-0.1,0-0.2,0-0.2-0.1v-0.8C55.5,16.6,55.5,16.6,55.6,16.6L55.6,16.6z"/>
	<path class="st1" d="M67,17.6v-0.8c0-0.1-0.1-0.1-0.2-0.1h-4.2c-0.1,0-0.1,0-0.1,0.1v6.8c0,0.1,0,0.1,0.1,0.1h0.9
		c0.1,0,0.1,0,0.1-0.1v-2.7h2.8c0.1,0,0.1,0,0.1-0.1v-0.8c0-0.1-0.1-0.1-0.1-0.1h-2.8v-2.1h3.2C66.9,17.7,67,17.7,67,17.6z"/>
	<path class="st1" d="M74,21.2c0,0.8-0.2,1.4-0.8,1.9c-0.5,0.5-1.2,0.7-2,0.7s-1.5-0.2-2-0.7c-0.5-0.5-0.7-1.1-0.7-1.9v-4.5
		c0-0.1,0.1-0.1,0.2-0.1h0.9c0.1,0,0.2,0,0.2,0.1v4.4c0,0.5,0.1,0.9,0.4,1.2c0.3,0.3,0.6,0.4,1.1,0.4s0.8-0.1,1.1-0.4
		c0.3-0.3,0.4-0.7,0.4-1.2v-4.4c0-0.1,0.1-0.1,0.2-0.1h0.9c0.1,0,0.2,0,0.2,0.1V21.2z"/>
	<path class="st0" d="M80.1,23.7h1.1c0.1,0,0.2-0.1,0.1-0.2L79.4,21c0.5-0.1,0.9-0.4,1.2-0.8s0.4-0.8,0.4-1.4c0-0.7-0.2-1.3-0.7-1.7
		c-0.4-0.4-1.1-0.6-1.9-0.6h-2.3c-0.1,0-0.1,0-0.1,0.1v6.8c0,0.1,0.1,0.1,0.1,0.1h0.9c0.1,0,0.1,0,0.1-0.1v-2.5h0.9l1.8,2.5
		C79.9,23.7,80,23.7,80.1,23.7L80.1,23.7z M77.2,17.7h1.3c0.5,0,0.8,0.1,1,0.3c0.2,0.2,0.3,0.5,0.3,0.9s-0.1,0.7-0.3,0.9
		c-0.2,0.2-0.6,0.3-1,0.3h-1.3V17.7L77.2,17.7z"/>
	<path class="st1" d="M84.5,23.7h0.9c0.1,0,0.2,0,0.2-0.1v-2.5l2.3-4.3c0,0,0-0.1,0-0.1c0,0-0.1-0.1-0.1-0.1h-1.1
		c-0.1,0-0.1,0-0.2,0.1L84.9,20l-1.6-3.3c0-0.1-0.1-0.1-0.2-0.1h-1.1c-0.1,0-0.1,0-0.1,0.1c0,0,0,0.1,0,0.1l2.3,4.3v2.5
		C84.3,23.7,84.4,23.7,84.5,23.7L84.5,23.7z"/>
</g>
</svg>
