<?xml version="1.0" encoding="UTF-8"?>
<svg id="Camada_1" data-name="Camada 1" xmlns="http://www.w3.org/2000/svg" viewBox="0 0 88.31 40">
  <defs>
    <style>
      .cls-1, .cls-2 {
        fill: #fff;
      }

      .cls-2 {
        fill-rule: evenodd;
      }
    </style>
  </defs>
  <path class="cls-2" d="m9.99,29.55h10.81c.14,0,.21-.16.12-.27l-3.23-3.71c1.25-1.74,1.87-3.85,1.78-5.99-.1-2.14-.91-4.19-2.3-5.81-1.4-1.62-3.3-2.73-5.39-3.13-2.1-.41-4.27-.1-6.17.88-1.9.98-3.41,2.57-4.3,4.52-.89,1.95-1.09,4.14-.59,6.22.51,2.08,1.7,3.93,3.38,5.25,1.68,1.32,3.76,2.04,5.9,2.03Zm-5.24-6.88c-.41-.82-.63-1.73-.63-2.65,0-.78.14-1.55.43-2.27.29-.72.72-1.37,1.27-1.93.55-.55,1.19-.99,1.91-1.29.71-.3,1.48-.45,2.26-.45s1.54.15,2.26.45c.71.3,1.36.74,1.91,1.29.55.55.98,1.21,1.27,1.93.29.72.44,1.49.43,2.27,0,.34-.03.67-.09,1h-1.64l-6.44.02c-.14,0-.22.17-.12.27l4.15,4.33c-.88.27-1.8.33-2.71.17-.9-.16-1.76-.52-2.5-1.07-.74-.55-1.34-1.26-1.75-2.08Z"/>
  <path class="cls-2" d="m32.55,23.63l-.49.48c-.08.08-.15.08-.21,0l-.62-.65c-.44.25-.95.37-1.55.37-.88,0-1.57-.24-2.07-.73-.49-.49-.74-1.17-.74-2.05v-1.84c0-.87.25-1.55.74-2.04.49-.49,1.18-.73,2.07-.73s1.57.24,2.07.73c.49.49.74,1.16.74,2.04v1.84c0,.72-.17,1.31-.52,1.77l.58.6c.07.07.07.14,0,.21Zm-4.44-2.57c0,1.08.52,1.62,1.56,1.64.23,0,.46-.05.68-.14l-.7-.74c-.06-.07-.06-.14,0-.21l.48-.48c.08-.07.15-.07.21,0l.76.78c.11-.26.17-.54.17-.85v-1.83c0-.54-.14-.95-.41-1.23-.27-.28-.66-.42-1.17-.42-1.05,0-1.58.55-1.58,1.65v1.83Z"/>
  <path class="cls-1" d="m39.02,23.13c.5-.47.75-1.1.75-1.9v-4.5c0-.1-.05-.15-.15-.15h-.93c-.1,0-.15.05-.15.15v4.43c0,.5-.13.88-.4,1.16-.26.27-.63.4-1.1.4s-.84-.13-1.1-.4c-.25-.27-.38-.66-.38-1.16v-4.43c0-.1-.05-.15-.15-.15h-.93c-.1,0-.15.05-.15.15v4.5c0,.78.25,1.42.74,1.9.49.47,1.15.71,1.97.71s1.48-.24,1.98-.71Z"/>
  <path class="cls-2" d="m42.11,23.72h-.98c-.11,0-.15-.06-.12-.17l2.39-6.85c.03-.08.09-.12.16-.12h1.14c.07,0,.13.04.16.12l2.39,6.85c.03.11,0,.17-.12.17h-.98c-.09,0-.15-.04-.17-.12l-.49-1.51h-2.73l-.49,1.51c-.03.08-.08.12-.17.12Zm2.01-5.82l-1.01,3.1h2.06l-1.01-3.1h-.04Z"/>
  <path class="cls-1" d="m48.78,23.72h.91c.09,0,.14-.05.14-.15v-2.28c0-.8-.03-1.71-.09-2.74h.03c.32.67.68,1.32,1.07,1.96l1.89,3.12c.04.07.1.1.17.1h1.01c.1,0,.15-.05.15-.15v-6.84c0-.1-.05-.15-.15-.15h-.9c-.1,0-.15.05-.15.15v2.43c0,.96.03,1.86.09,2.7h-.03c-.19-.34-.52-.94-1-1.8l-1.95-3.39c-.05-.07-.11-.1-.18-.1h-1.01c-.09,0-.14.05-.14.15v6.84c0,.1.05.15.14.15Z"/>
  <path class="cls-1" d="m55.63,16.59h5.22c.1,0,.15.05.15.15v.82c0,.09-.05.14-.15.14h-2.01v5.88c0,.1-.05.15-.14.15h-.92c-.09,0-.14-.05-.14-.15v-5.88h-2.02c-.1,0-.15-.05-.15-.14v-.82c0-.1.05-.15.15-.15Z"/>
  <path class="cls-1" d="m66.97,17.56v-.82c0-.1-.05-.15-.15-.15h-4.24c-.09,0-.14.05-.14.15v6.84c0,.1.05.15.14.15h.92c.09,0,.14-.05.14-.15v-2.7h2.76c.09,0,.14-.05.14-.15v-.8c0-.1-.05-.15-.14-.15h-2.76v-2.08h3.18c.1,0,.15-.05.15-.14Z"/>
  <path class="cls-1" d="m73.96,21.24c0,.79-.25,1.42-.75,1.9-.49.47-1.15.71-1.98.71s-1.47-.24-1.97-.71c-.49-.48-.74-1.11-.74-1.9v-4.5c0-.1.05-.15.15-.15h.93c.1,0,.15.05.15.15v4.43c0,.5.13.88.38,1.16.26.27.63.4,1.1.4s.84-.13,1.1-.4c.27-.27.4-.66.4-1.16v-4.43c0-.1.05-.15.15-.15h.93c.1,0,.15.05.15.15v4.5Z"/>
  <path class="cls-2" d="m80.05,23.72h1.13c.13,0,.16-.06.09-.18l-1.83-2.55c.53-.14.93-.39,1.22-.76.29-.37.44-.82.44-1.37,0-.71-.23-1.27-.69-1.67-.45-.41-1.09-.61-1.91-.61h-2.32c-.09,0-.14.05-.14.15v6.84c0,.1.05.15.14.15h.92c.09,0,.14-.05.14-.15v-2.45h.89l1.75,2.5c.04.07.1.1.17.1Zm-2.8-6.03h1.26c.47,0,.81.1,1.03.29.23.19.34.48.34.89s-.11.7-.34.89c-.22.19-.56.28-1.03.28h-1.26v-2.34Z"/>
  <path class="cls-1" d="m84.49,23.72h.92c.1,0,.15-.05.15-.15v-2.46l2.28-4.34s.03-.09.01-.12c-.02-.04-.06-.06-.11-.06h-1.05c-.09,0-.14.04-.17.11l-1.58,3.28-1.59-3.28c-.03-.07-.08-.11-.16-.11h-1.05c-.06,0-.1.02-.12.06-.02.03-.02.07.01.12l2.29,4.32v2.48c0,.1.05.15.15.15Z"/>
</svg>