<?xml version="1.0" encoding="utf-8"?>
<!-- Generator: Adobe Illustrator 28.1.0, SVG Export Plug-In . SVG Version: 6.00 Build 0)  -->
<svg version="1.1" id="Camada_1" xmlns="http://www.w3.org/2000/svg" xmlns:xlink="http://www.w3.org/1999/xlink" x="0px" y="0px"
	 viewBox="0 0 88.3 40" style="enable-background:new 0 0 88.3 40;" xml:space="preserve">
<style type="text/css">
	.st0{fill:#1ED760;}
	.st1{fill:#11915A;}
	.st2{fill:#FFFFFF;}
</style>
<g>
	<path class="st0" d="M12.5,14.3c-1-0.5-2.4-0.9-3.9-1.1l-0.4,1.3c1.3,0.2,2.4,0.5,3.3,0.8v4.1c0,3.3-2.4,4.8-5,6
		c-0.4-0.2-0.7-0.4-1.1-0.6l-0.4,1.4c0.4,0.2,0.8,0.4,1.2,0.6L6.5,27l0.3-0.1c2.1-1,6-2.9,6-7.4v-5L12.5,14.3z"/>
	<path class="st0" d="M8.9,19.9c0.5-0.4,0.8-0.9,0.8-1.6c0-1-0.9-1.8-1.9-1.8h0l-0.3,1.3h0.3c0.3,0,0.6,0.3,0.6,0.6
		c0,0.3-0.3,0.6-0.6,0.6H7l-0.3,1.3h0.8L8.5,22H10L8.9,19.9z"/>
	<path class="st1" d="M5.1,20.2H6l0.3-1.3H5.1v-1.2h1.5L7,16.5H4.3c-0.3,0-0.6,0.3-0.6,0.6v4.3C3.7,21.7,4,22,4.3,22h0.8V20.2z"/>
	<path class="st1" d="M4.8,24.5c-1.8-1.1-3.2-2.6-3.2-5.1v-4.1c1.2-0.5,3.1-0.9,5-0.9c0.3,0,0.7,0,1,0l0.4-1.3C7.4,13,7,13,6.5,13
		c-2,0-4.4,0.5-6,1.3l-0.4,0.2v5c0,3.4,2.2,5.3,4.2,6.5L4.8,24.5z"/>
	<path class="st2" d="M76.1,16.4l-1.8,4.4l-1.8-4.4c-0.1-0.3-0.4-0.5-0.7-0.5h-1.2l2.8,6.3c0.2,0.4,0.5,0.6,0.9,0.6h0.2
		c0.4,0,0.8-0.2,0.9-0.6l2.8-6.3h-1.2C76.5,15.9,76.2,16.1,76.1,16.4z"/>
	<path class="st2" d="M40,15.8h-0.2c-0.4,0-0.8,0.2-0.9,0.6l-2.8,6.3h1.2c0.3,0,0.6-0.2,0.7-0.5l1.8-4.4l1.8,4.4
		c0.1,0.3,0.4,0.5,0.7,0.5h1.2l-2.8-6.3C40.8,16.1,40.4,15.8,40,15.8z"/>
	<path class="st2" d="M29.8,20h3c0.1,0,0.3-0.1,0.3-0.3v-0.9c0-0.1-0.1-0.3-0.3-0.3h-3v-1.3h3.7v-0.7c0-0.4-0.3-0.8-0.8-0.8H29
		c-0.4,0-0.8,0.3-0.8,0.8V22c0,0.4,0.3,0.8,0.8,0.8h3.8c0.4,0,0.8-0.3,0.8-0.8v-0.7h-3.7L29.8,20L29.8,20z"/>
	<path class="st2" d="M64.3,20h3c0.1,0,0.3-0.1,0.3-0.3v-0.9c0-0.1-0.1-0.3-0.3-0.3h-3v-1.3H68v-0.7c0-0.4-0.3-0.8-0.8-0.8h-3.7
		c-0.4,0-0.8,0.3-0.8,0.8V22c0,0.4,0.3,0.8,0.8,0.8h3.8c0.4,0,0.8-0.3,0.8-0.8v-0.7h-3.7L64.3,20L64.3,20z"/>
	<path class="st2" d="M48,15.9h-0.8c-0.4,0-0.8,0.3-0.8,0.8V22c0,0.4,0.3,0.8,0.8,0.8h3.5c0.4,0,0.8-0.3,0.8-0.8v-0.7H48L48,15.9
		L48,15.9z"/>
	<path class="st2" d="M58.9,15.9h-3.8c-0.4,0-0.8,0.3-0.8,0.8V22c0,0.4,0.3,0.8,0.8,0.8H56v-2.5h2.7c0.1,0,0.3-0.1,0.3-0.3v-0.9
		c0-0.1-0.1-0.3-0.3-0.3H56v-1.5h3.7v-0.7C59.7,16.2,59.3,15.9,58.9,15.9z"/>
	<path class="st2" d="M25,18.2L25,18.2c0-1.5-1-2.3-2.6-2.3H20c-0.4,0-0.8,0.3-0.8,0.8V22c0,0.4,0.3,0.8,0.8,0.8h0.8v-5.5h1.5
		c0.7,0,1.1,0.3,1.1,0.9v0c0,0.6-0.4,0.9-1.1,0.9h-0.4c-0.1,0-0.3,0.1-0.3,0.3v0.9c0,0.1,0.1,0.3,0.3,0.3H22c0.3,0,0.7,0.1,0.9,0.6
		l0.9,1.6h1.7L24,20.2C24.6,19.8,25,19.2,25,18.2z"/>
	<path class="st2" d="M85.2,20.2c0.6-0.3,1.1-0.9,1.1-1.9v0c0-1.4-1-2.3-2.6-2.3h-2.4c-0.4,0-0.8,0.3-0.8,0.8V22
		c0,0.4,0.3,0.8,0.8,0.8h0.8v-5.5h1.5c0.7,0,1.1,0.3,1.1,0.9v0c0,0.6-0.4,0.9-1.1,0.9h-0.4c-0.1,0-0.3,0.1-0.3,0.3v0.9
		c0,0.1,0.1,0.3,0.3,0.3h0.1c0.3,0,0.7,0.1,0.9,0.6l0.9,1.6h1.7L85.2,20.2z"/>
	<path class="st2" d="M88,16c0.1,0.1,0.1,0.2,0.1,0.3c0,0.1,0,0.2-0.1,0.3c-0.1,0.1-0.2,0.1-0.3,0.1c-0.1,0-0.2,0-0.3-0.1
		c-0.1-0.1-0.1-0.2-0.1-0.3c0-0.1,0-0.2,0.1-0.3c0.1-0.1,0.2-0.1,0.3-0.1C87.8,15.8,87.9,15.9,88,16z M87.9,16.6
		c0.1-0.1,0.1-0.2,0.1-0.3c0-0.1,0-0.2-0.1-0.3c-0.1-0.1-0.2-0.1-0.3-0.1c-0.1,0-0.2,0-0.3,0.1c-0.1,0.1-0.1,0.2-0.1,0.3
		c0,0.1,0,0.2,0.1,0.3c0.1,0.1,0.2,0.1,0.3,0.1C87.7,16.7,87.8,16.7,87.9,16.6z M87.7,16.4l0.1,0.1h-0.1l-0.1-0.1h-0.1v0.1h-0.1
		v-0.4h0.2c0.1,0,0.1,0,0.1,0c0,0,0,0.1,0,0.1C87.8,16.3,87.8,16.4,87.7,16.4z M87.7,16.3C87.7,16.3,87.7,16.3,87.7,16.3
		c0.1-0.1,0-0.1,0-0.1h-0.1L87.7,16.3L87.7,16.3z"/>
</g>
</svg>
