<?xml version="1.0" encoding="utf-8"?>
<!-- Generator: Adobe Illustrator 28.1.0, SVG Export Plug-In . SVG Version: 6.00 Build 0)  -->
<svg version="1.1" id="Camada_1" xmlns="http://www.w3.org/2000/svg" xmlns:xlink="http://www.w3.org/1999/xlink" x="0px" y="0px"
	 viewBox="0 0 88.3 40" style="enable-background:new 0 0 88.3 40;" xml:space="preserve">
<style type="text/css">
	.st0{fill:#0F9300;}
	.st1{fill:#14C000;}
	.st2{fill:#23FF0A;}
	.st3{fill:#FFFFFF;}
</style>
<g>
	<path class="st0" d="M5.5,15.7c-0.7,1.4-1.1,2.8-1.1,4.3c-1.2-0.7-2.6-1.1-4.1-1.1c0-1.6,0.4-3,1.1-4.3C2.8,14.6,4.2,14.9,5.5,15.7
		z"/>
	<path class="st1" d="M8.4,27.4c-4.5,0-8.1-3.8-8.1-8.6c1.5,0,2.9,0.4,4.1,1.1C4.4,23,5.8,25.9,8.4,27.4z"/>
	<path class="st2" d="M12.5,20c0,3-1.5,5.9-4.1,7.4C5.8,25.9,4.4,23,4.4,20c1.2,0.8,2.3,1.8,3,3.1c0-1.5,0.4-3,1.1-4.3
		c0.7,1.3,1.1,2.8,1.1,4.3C10.2,21.8,11.3,20.8,12.5,20z"/>
	<path class="st1" d="M8.4,18.8c-0.7,1.3-1.1,2.8-1.1,4.3c-0.7-1.3-1.7-2.4-3-3.1c0-1.5,0.4-2.9,1.1-4.3C6.7,16.5,7.7,17.6,8.4,18.8
		z"/>
	<path class="st0" d="M11.4,15.7c-1.3,0.8-2.3,1.9-3,3.1c-0.7-1.3-1.7-2.4-3-3.1c0.7-1.4,1.8-2.4,3-3.1
		C9.6,13.3,10.7,14.3,11.4,15.7z"/>
	<path class="st1" d="M12.5,20c-1.2,0.8-2.3,1.8-3,3.1c0-1.5-0.4-3-1.1-4.3c0.7-1.3,1.7-2.4,3-3.1C12.1,17.1,12.5,18.5,12.5,20z"/>
	<path class="st1" d="M16.6,18.8c0,4.7-3.6,8.6-8.1,8.6c2.6-1.6,4.1-4.5,4.1-7.4C13.7,19.3,15.1,18.8,16.6,18.8z"/>
	<path class="st0" d="M16.6,18.8c-1.5,0-2.9,0.4-4.1,1.1c0-1.5-0.4-2.9-1.1-4.3c1.3-0.8,2.7-1.2,4.1-1.2
		C16.2,15.8,16.6,17.3,16.6,18.8z"/>
	<path class="st3" d="M21.4,21c0,1.7,1.1,2.3,2.2,2.3c0.9,0,1.8-0.4,1.8-1.3c0-0.9-0.8-1.1-2.1-1.4c-1.3-0.3-2.9-0.7-2.9-2.3
		c0-1.2,0.9-2.4,2.9-2.4c2.1,0,3,1.5,3,3h-1.1c0-1.3-0.6-2-1.8-2c-1.1,0-1.7,0.6-1.7,1.3c0,0.8,0.8,1,2,1.3c1.4,0.3,3,0.8,3,2.5
		c0,1.4-1.2,2.4-3,2.4c-2,0-3.3-1.2-3.3-3.3H21.4z"/>
	<path class="st3" d="M29.6,18c1.8,0,2.8,1.5,2.8,3.4h-4.5c0,1.2,0.7,2,1.8,2c0.7,0,1.4-0.4,1.6-1.1l0.9,0.4
		c-0.3,0.9-1.1,1.6-2.5,1.6c-1.8,0-3-1.3-3-3.1S27.8,18,29.6,18z M29.6,18.9c-0.8,0-1.5,0.6-1.6,1.7h3.3
		C31.1,19.4,30.4,18.9,29.6,18.9z"/>
	<path class="st3" d="M35.9,18v1.3c-0.1-0.1-0.4-0.1-0.6-0.1c-0.6,0-1.4,0.6-1.4,1.6v3.5h-1.1v-6.1h1.1v1.6C34.2,18.6,35,18,35.9,18
		z"/>
	<path class="st3" d="M38.4,18c1.8,0,2.8,1.5,2.8,3.4h-4.5c0,1.2,0.7,2,1.8,2c0.7,0,1.4-0.4,1.6-1.1l0.9,0.4
		c-0.3,0.9-1.1,1.6-2.5,1.6c-1.8,0-3-1.3-3-3.1S36.7,18,38.4,18z M38.4,18.9c-0.8,0-1.5,0.6-1.6,1.7h3.3
		C39.9,19.4,39.2,18.9,38.4,18.9z"/>
	<path class="st3" d="M46.8,20.6v3.6h-1.1v-3.1c0-1.3-0.2-2.1-1.3-2.1c-1.2,0-1.7,1.6-1.7,2.5v2.6h-1.1v-6.1h1.1v1.8
		c0.3-1.1,1-1.9,2.1-1.9C46.1,18,46.8,18.8,46.8,20.6L46.8,20.6z"/>
	<path class="st3" d="M48.2,15.8c0.4,0,0.7,0.3,0.7,0.8c0,0.4-0.3,0.8-0.7,0.8c-0.4,0-0.7-0.3-0.7-0.8S47.8,15.8,48.2,15.8z
		 M48.8,18.1v6.1h-1.1v-6.1H48.8z"/>
	<path class="st3" d="M53.2,22.8v1c-0.3,0.3-0.8,0.5-1.2,0.5c-1.2,0-1.7-0.9-1.7-2.1V19H49v-0.9h1.3v0l0.3-1.8h0.8v1.8h2.1V19h-2.1
		v3.2c0,0.9,0.3,1.1,0.9,1.1C52.6,23.3,53,23.1,53.2,22.8L53.2,22.8z"/>
	<path class="st3" d="M58.4,18.1l-2.2,6.2c-0.5,1.4-0.9,2.1-1.9,2.1c-0.4,0-0.9-0.2-1.1-0.3v-1.1c0.2,0.2,0.6,0.4,1,0.4
		c0.5,0,0.7-0.6,0.9-1.2l0-0.1l-2.3-6h1.1l1.7,4.5l1.7-4.6L58.4,18.1L58.4,18.1z"/>
	<path class="st3" d="M61.1,21c0,1.7,1.1,2.3,2.2,2.3c0.9,0,1.8-0.4,1.8-1.3c0-0.9-0.8-1.1-2.1-1.4c-1.3-0.3-2.9-0.7-2.9-2.3
		c0-1.2,0.9-2.4,2.9-2.4c2.1,0,3,1.5,3,3h-1.1c0-1.3-0.6-2-1.8-2c-1.1,0-1.7,0.6-1.7,1.3c0,0.8,0.8,1,2,1.3c1.4,0.3,3,0.8,3,2.5
		c0,1.4-1.2,2.4-3,2.4c-2,0-3.3-1.2-3.3-3.3H61.1z"/>
	<path class="st3" d="M72,20.6v3.6h-1.1v-3.1c0-1.3-0.2-2.1-1.3-2.1c-1.2,0-1.7,1.6-1.7,2.5v2.6h-1.1v-8.1h1.1v3.8
		c0.3-1.1,1-1.9,2.1-1.9C71.3,18,72,18.8,72,20.6L72,20.6z"/>
	<path class="st3" d="M73.4,15.8c0.4,0,0.7,0.3,0.7,0.8c0,0.4-0.3,0.8-0.7,0.8c-0.4,0-0.7-0.3-0.7-0.8S72.9,15.8,73.4,15.8z
		 M73.9,18.1v6.1h-1.1v-6.1H73.9z"/>
	<path class="st3" d="M77.3,18c1.8,0,2.8,1.5,2.8,3.4h-4.5c0,1.2,0.7,2,1.8,2c0.7,0,1.4-0.4,1.6-1.1l0.9,0.4
		c-0.3,0.9-1.1,1.6-2.5,1.6c-1.8,0-3-1.3-3-3.1S75.5,18,77.3,18z M77.3,18.9c-0.8,0-1.5,0.6-1.6,1.7h3.3
		C78.8,19.4,78.1,18.9,77.3,18.9z"/>
	<path class="st3" d="M81.7,16.1v8.1h-1.1v-8.1H81.7z"/>
	<path class="st3" d="M88,16.1v8h-1.1v-1.3c-0.4,0.9-1.1,1.5-2,1.5c-1.6,0-2.7-1.3-2.7-3.2c0-1.9,1.1-3.1,2.6-3.1
		c0.9,0,1.7,0.6,2.1,1.4v-3.3L88,16.1L88,16.1z M86.9,21.2c0-1.4-0.8-2.3-1.8-2.3c-1.1,0-1.8,0.9-1.8,2.2s0.7,2.3,1.8,2.3
		C86.1,23.4,86.9,22.4,86.9,21.2L86.9,21.2z"/>
</g>
</svg>
