<?xml version="1.0" encoding="utf-8"?>
<!-- Generator: Adobe Illustrator 28.1.0, SVG Export Plug-In . SVG Version: 6.00 Build 0)  -->
<svg version="1.1" id="Camada_1" xmlns="http://www.w3.org/2000/svg" xmlns:xlink="http://www.w3.org/1999/xlink" x="0px" y="0px"
	 viewBox="0 0 88.3 40" style="enable-background:new 0 0 88.3 40;" xml:space="preserve">
<style type="text/css">
	.st0{fill:#FFD447;}
	.st1{fill:url(#SVGID_1_);}
	.st2{fill:url(#SVGID_00000093862269395343068940000009832350986619488130_);}
	.st3{fill:url(#SVGID_00000157265831583004617310000010352335471857246121_);}
	.st4{fill:url(#SVGID_00000154427848254039095610000014133433348561982083_);}
	.st5{fill:url(#SVGID_00000123402780866677457910000010781450748520755637_);}
	.st6{fill:url(#SVGID_00000086681369887618216980000010469394469011795608_);}
	.st7{fill:#FFFFFF;}
</style>
<g>
	<path class="st0" d="M43.1,29l-0.4,0.3l-0.1,0.1L42,30l-0.5,0.4L41.2,33l-0.2,1.1l-0.2,1.2l-0.1,1.1l0.9,0.8l0.4,0.3l0.5,0.5
		l0.1,0.1l0.5,0.4l0.5,0.4l0.1,0.1v-3.3v-3.4v-2V29v-0.4l-0.2,0.2L43.1,29z"/>
	<path class="st0" d="M39.4,28.5l-0.3,0.7l-0.4,0.7l-0.9,1.8l-0.2,0.4l-0.5,1.1l0.6,0.5l0.1,0.1l1.1,1l0.8-2.5l0.2-0.5l0.1-0.4
		l0.3-0.8l0.3-1l0,0L39.4,28.5L39.4,28.5z"/>
	<path class="st0" d="M38.2,28.4l0.4-0.7L38,26.3l-0.1,0.1l-0.3,0.4l0,0L35.9,29L35.1,30l0.7,1.8l0.2,0.5l1.8-3.3L38.2,28.4z"/>
	<path class="st0" d="M47.3,34.1L47.1,33l-0.3-2.6L46.3,30l-0.5-0.5l-0.1-0.1L45.2,29l-0.3-0.3l-0.2-0.2V29v1.2v2v3.4v3.3l0.1-0.1
		l0.5-0.4l0.5-0.4l0.1-0.1l0.5-0.5l0.4-0.3l0.9-0.8l-0.1-1.1L47.3,34.1z"/>
	<path class="st0" d="M50.5,31.7l-0.9-1.8l-0.4-0.7l-0.3-0.7l0,0l-1.2,1l0,0l0.3,1l0.3,0.8l0.1,0.4l0.2,0.5l0.8,2.5l1.1-1l0.1-0.1
		l0.6-0.5l-0.5-1.1L50.5,31.7z"/>
	<path class="st0" d="M50.8,26.9L50.8,26.9l-0.3-0.4l-0.1-0.1l-0.6,1.4l0.4,0.7l0.3,0.6l1.8,3.3l0.2-0.5l0.7-1.8L52.4,29L50.8,26.9z
		"/>
	
		<linearGradient id="SVGID_1_" gradientUnits="userSpaceOnUse" x1="3888.4038" y1="-3063.2637" x2="4089.8621" y2="-3063.2637" gradientTransform="matrix(8.948546e-02 0 0 -8.948546e-02 -312.8133 -240.3584)">
		<stop  offset="0" style="stop-color:#F9C924"/>
		<stop  offset="0.3198" style="stop-color:#E4AF18"/>
		<stop  offset="0.6802" style="stop-color:#FFF98C"/>
		<stop  offset="1" style="stop-color:#FFD440"/>
	</linearGradient>
	<path class="st1" d="M43.1,29l-0.4,0.3l-0.1,0.1L42,30l-0.5,0.4L41.2,33l-0.2,1.1l-0.2,1.2l-0.1,1.1l0.9,0.8l0.4,0.3l0.5,0.5
		l0.1,0.1l0.5,0.4l0.5,0.4l0.1,0.1v-3.3v-3.4v-2V29v-0.4l-0.2,0.2L43.1,29z"/>
	
		<linearGradient id="SVGID_00000065071219346652672750000012734193188498990763_" gradientUnits="userSpaceOnUse" x1="3888.4001" y1="-3040.0239" x2="4089.8586" y2="-3040.0239" gradientTransform="matrix(8.948546e-02 0 0 -8.948546e-02 -312.8133 -240.3584)">
		<stop  offset="0" style="stop-color:#F9C924"/>
		<stop  offset="0.3198" style="stop-color:#E4AF18"/>
		<stop  offset="0.6802" style="stop-color:#FFF98C"/>
		<stop  offset="1" style="stop-color:#FFD440"/>
	</linearGradient>
	<path style="fill:url(#SVGID_00000065071219346652672750000012734193188498990763_);" d="M39.4,28.5l-0.3,0.7l-0.4,0.7l-0.9,1.8
		l-0.2,0.4l-0.5,1.1l0.6,0.5l0.1,0.1l1.1,1l0.8-2.5l0.2-0.5l0.1-0.4l0.3-0.8l0.3-1l0,0L39.4,28.5L39.4,28.5z"/>
	
		<linearGradient id="SVGID_00000165952986116141663530000004602817900378399142_" gradientUnits="userSpaceOnUse" x1="3888.4036" y1="-3013.5242" x2="4089.8623" y2="-3013.5242" gradientTransform="matrix(8.948546e-02 0 0 -8.948546e-02 -312.8133 -240.3584)">
		<stop  offset="0" style="stop-color:#F9C924"/>
		<stop  offset="0.3198" style="stop-color:#E4AF18"/>
		<stop  offset="0.6802" style="stop-color:#FFF98C"/>
		<stop  offset="1" style="stop-color:#FFD440"/>
	</linearGradient>
	<path style="fill:url(#SVGID_00000165952986116141663530000004602817900378399142_);" d="M38.2,28.4l0.4-0.7L38,26.3l-0.1,0.1
		l-0.3,0.4l0,0L35.9,29L35.1,30l0.7,1.8l0.2,0.5l1.8-3.3L38.2,28.4z"/>
	
		<linearGradient id="SVGID_00000025444175004886363160000007479706341810816954_" gradientUnits="userSpaceOnUse" x1="3888.3953" y1="-3063.2637" x2="4089.8533" y2="-3063.2637" gradientTransform="matrix(8.948546e-02 0 0 -8.948546e-02 -312.8133 -240.3584)">
		<stop  offset="0" style="stop-color:#F9C924"/>
		<stop  offset="0.3198" style="stop-color:#E4AF18"/>
		<stop  offset="0.6802" style="stop-color:#FFF98C"/>
		<stop  offset="1" style="stop-color:#FFD440"/>
	</linearGradient>
	<path style="fill:url(#SVGID_00000025444175004886363160000007479706341810816954_);" d="M47.3,34.1L47.1,33l-0.3-2.6L46.3,30
		l-0.5-0.5l-0.1-0.1L45.2,29l-0.3-0.3l-0.2-0.2V29v1.2v2v3.4v3.3l0.1-0.1l0.5-0.4l0.5-0.4l0.1-0.1l0.5-0.5l0.4-0.3l0.9-0.8l-0.1-1.1
		L47.3,34.1z"/>
	
		<linearGradient id="SVGID_00000155147108949365949820000008492408655726123141_" gradientUnits="userSpaceOnUse" x1="3888.4043" y1="-3040.0239" x2="4089.863" y2="-3040.0239" gradientTransform="matrix(8.948546e-02 0 0 -8.948546e-02 -312.8133 -240.3584)">
		<stop  offset="0" style="stop-color:#F9C924"/>
		<stop  offset="0.3198" style="stop-color:#E4AF18"/>
		<stop  offset="0.6802" style="stop-color:#FFF98C"/>
		<stop  offset="1" style="stop-color:#FFD440"/>
	</linearGradient>
	<path style="fill:url(#SVGID_00000155147108949365949820000008492408655726123141_);" d="M50.5,31.7l-0.9-1.8l-0.4-0.7l-0.3-0.7
		l0,0l-1.2,1l0,0l0.3,1l0.3,0.8l0.1,0.4l0.2,0.5l0.8,2.5l1.1-1l0.1-0.1l0.6-0.5l-0.5-1.1L50.5,31.7z"/>
	
		<linearGradient id="SVGID_00000019649674452387555590000001071354908243705258_" gradientUnits="userSpaceOnUse" x1="3888.3984" y1="-3013.5242" x2="4089.8567" y2="-3013.5242" gradientTransform="matrix(8.948546e-02 0 0 -8.948546e-02 -312.8133 -240.3584)">
		<stop  offset="0" style="stop-color:#F9C924"/>
		<stop  offset="0.3198" style="stop-color:#E4AF18"/>
		<stop  offset="0.6802" style="stop-color:#FFF98C"/>
		<stop  offset="1" style="stop-color:#FFD440"/>
	</linearGradient>
	<path style="fill:url(#SVGID_00000019649674452387555590000001071354908243705258_);" d="M50.8,26.9L50.8,26.9l-0.3-0.4l-0.1-0.1
		l-0.6,1.4l0.4,0.7l0.3,0.6l1.8,3.3l0.2-0.5l0.7-1.8L52.4,29L50.8,26.9z"/>
	<path class="st7" d="M56.6,1.9l-0.9-0.8h0h0l-1.5,0.6l-0.4,0.2L53.3,2l-0.9,0.4l-0.8,0.3l-1,1.6l0,0.1l-0.1,0.2L47,10.3l-0.7,1.2h0
		v0v1.6l0.4,0.4l1.8,1.6l0.1,0.1l-0.1-0.1L46.4,14l-0.1-0.1l-0.5-0.3v-1v-0.2v-0.9v0l0.5-1.1l0.2-0.5L48.9,5l0.6-1.2l-0.2-0.1
		l-0.9-0.5l-0.4,1l-0.5,1.4l-1.1,3L46,9.4l-0.2,0.6l-0.5,1.4l0,0v0.7v0.5v0.7v0.1V14l0.5,0.5l0.2,0.2l0.3,0.3l0.9,0.8l-0.9-0.5
		L45.8,15l0,0l-0.5-0.3l-0.5-0.3v-0.3v-0.4v-0.2v-0.4v-0.2v-1.3v-0.2L45.2,9l0-0.2l0.5-2.4l0-0.2l0.3-1.3l0.2-1.1l0.3-1.6l-0.3-0.2
		l-0.5-0.3l-0.5-0.3l-0.5-0.3l-0.5-0.3h0h0l-0.5,0.3l-0.5,0.3l-0.5,0.3L42,2.1l-0.3,0.2L42,3.9l0.2,1.1l0.3,1.3l0,0.2l0.5,2.4l0,0.2
		l0.5,2.5v0.2v1.3v0.2v0.4v0.2v0.4v0.3l-0.5,0.3L42.6,15l0,0L42,15.2l-0.9,0.5l0.9-0.8l0.3-0.3l0.2-0.2l0.5-0.5v-0.6v-0.1v-0.7v-0.5
		v-0.7l0,0l-0.5-1.4l-0.2-0.6L42,8.6l-1.1-3l-0.5-1.4l-0.4-1l-0.9,0.5l-0.2,0.1L39.4,5l2.3,4.9l0.2,0.5l0.5,1.1v0v0.9v0.2v1L42,13.9
		L41.9,14l-2.1,1.1l-0.1,0.1l0.1-0.1l1.8-1.6l0.4-0.4v-1.6v0h0l-0.7-1.2l-3.5-5.7l-0.1-0.2l0-0.1l-1-1.6l-0.8-0.3L35,2l-0.4-0.2
		l-0.4-0.2l-1.5-0.6h0h0l-0.9,0.8l-0.3,0.3v1.9v2.6v0.9v0.8v1.4v0.1v0.9v0.7l0.3,0.7l0.6,1.6l0.3,0.3l0.7,0.6l0.9,0.8l-0.9-2.3
		l-0.4-1.1l-0.2-0.6v-0.6V8.1V8.1V6.9V3l0.6-0.5l2.2,0.9l0.4,1l0.3,0.7l1.7,4.7v1.7v1.9l-0.4,0.4l-0.8,0.7l-0.5,0.5l0,0l-0.3,0.2v1
		v0.7v0.1v0.3v1.2v0.1v0.1v1l0.2,0.4l0.1,0.2l1.4,3.5l0.2,0.2l0.2,0.2l1.2,1l0.5,0.5l0.1,0.2l0.5,1.3l0.1,0.3l0.8,0.7l0.7,0.6
		l0.1-0.1l0.2-0.2l0.4-0.4l0.1-0.1l0.5-0.5l0.5-0.5l0.4-0.4l0.1-0.1l0.1,0.1l0.4,0.4l0.5,0.5l0.5,0.5l0.1,0.1l0.4,0.4l0.2,0.2
		l0.1,0.1l0.7-0.6l0.8-0.7l0.1-0.3l0.5-1.3l0.1-0.2l0.5-0.5l1.2-1l0.2-0.2l0.2-0.2l1.4-3.5l0.1-0.2l0.2-0.4v-1v-0.1v-0.1v-1.2v-0.3
		v-0.1v-0.7v-1l-0.3-0.2l0,0l-0.5-0.5l-0.8-0.7l-0.4-0.4v-1.9V9.8l1.7-4.7l0.3-0.7l0.4-1l2.2-0.9L55.6,3v3.9v1.1v0.1v2.7v0.6
		l-0.2,0.6L55,13.2l-0.9,2.3l0.9-0.8l0.7-0.6l0.3-0.3l0.6-1.6l0.3-0.7v-0.7V9.9V9.8V8.4V7.6V6.7V4.1V2.2L56.6,1.9z M38.2,16.8h0.9
		h0.3l0.3,0.2l1,0.6l1.3,1.5v0v0.8v0.2v1v0l0,0l-0.4-1.2h-2.3l-1.5-1.3v-0.1v-1.2v-0.6H38.2L38.2,16.8z M50.4,17.4v1.2v0.1L49,19.9
		h-2.3l-0.4,1.2l0,0v0v-1v-0.2v-0.8v0l1.3-1.5l1-0.6l0.3-0.2h0.3h0.9h0.4V17.4L50.4,17.4z M45.8,24.2l-0.5,0.5L44.8,25l-0.2,0.1
		l-0.5,0.5l-0.5-0.5L43.5,25l-0.4-0.3l-0.5-0.5l-0.2-0.1L42.3,24L42,23.8v0h0.4h0h0.1H43h0.1h0.5h0.1h0.5h0.5h0.1h0.5h0.1h0.4h0.1h0
		h0.4v0L46,24l-0.1,0.1L45.8,24.2z"/>
</g>
</svg>
