<?xml version="1.0" encoding="UTF-8"?>
<svg id="Camada_1" data-name="Camada 1" xmlns="http://www.w3.org/2000/svg" viewBox="0 0 88.31 40">
  <defs>
    <style>
      .cls-1 {
        fill: #fff;
      }
    </style>
  </defs>
  <path class="cls-1" d="m23.2,16.69c-.32.1-.74.16-1.26.16-.68,0-1.36-.11-2.03-.34-.67-.23-1.25-.52-1.74-.87l-.9,2.03c.51.4,1.18.72,2.02.97.84.25,1.71.37,2.62.37,1.09,0,1.99-.17,2.7-.5.71-.33,1.25-.77,1.61-1.32.36-.54.54-1.14.54-1.8,0-.61-.12-1.12-.37-1.51-.24-.4-.56-.72-.95-.97-.39-.24-.82-.44-1.3-.58-.47-.14-.95-.27-1.42-.38-.47-.11-.9-.22-1.3-.33-.39-.11-.71-.26-.95-.44-.24-.18-.36-.42-.36-.72,0-.26.07-.48.21-.67.14-.19.38-.35.7-.47.33-.12.74-.18,1.26-.18s1.03.07,1.56.22c.53.15,1.06.38,1.6.69l.82-2.05c-.53-.34-1.15-.6-1.84-.77-.7-.17-1.4-.26-2.12-.26-1.08,0-1.97.16-2.68.49s-1.24.77-1.6,1.31c-.35.55-.53,1.16-.53,1.82,0,.62.12,1.13.37,1.53.24.4.56.72.95.97.39.24.82.44,1.3.6.47.16.95.29,1.42.39.47.11.9.22,1.3.33.39.12.71.27.95.45.24.18.36.43.36.74,0,.24-.08.46-.23.65-.15.19-.39.34-.71.44Z"/>
  <path class="cls-1" d="m31.22,15.6h2.3c1.02,0,1.9-.17,2.64-.51.74-.34,1.31-.82,1.71-1.46.4-.63.6-1.38.6-2.25s-.2-1.63-.6-2.26-.97-1.12-1.71-1.46c-.74-.34-1.62-.51-2.64-.51h-4.94v11.65h2.64v-3.21Zm3.98-5.71c.4.36.6.85.6,1.5s-.2,1.13-.6,1.48c-.4.36-1.01.53-1.83.53h-2.15v-4.04h2.15c.82,0,1.42.18,1.83.53Z"/>
  <polygon class="cls-1" points="48.17 11.75 42.99 11.75 42.99 7.16 40.34 7.16 40.34 18.81 42.99 18.81 42.99 14.04 48.17 14.04 48.17 18.81 50.81 18.81 50.81 7.16 48.17 7.16 48.17 11.75"/>
  <polygon class="cls-1" points="56.35 18.81 58.99 18.81 58.99 14.69 63.43 7.16 60.84 7.16 57.78 12.33 54.74 7.16 51.93 7.16 56.35 14.66 56.35 18.81"/>
  <polygon class="cls-1" points="67.03 11.74 72.72 18.81 74.89 18.81 74.89 7.16 72.28 7.16 72.28 14.23 66.61 7.16 64.42 7.16 64.42 18.81 67.03 18.81 67.03 11.74"/>
  <polygon class="cls-1" points="79.32 18.81 82.03 14.76 84.78 18.81 87.83 18.81 83.58 12.79 87.56 7.16 84.69 7.16 82.12 10.93 79.5 7.16 76.5 7.16 80.5 12.88 76.29 18.81 79.32 18.81"/>
  <polygon class="cls-1" points="8.68 29.99 1.82 21.47 .48 21.47 .48 32.91 2.11 32.91 2.11 24.38 8.98 32.91 10.32 32.91 10.32 21.47 8.68 21.47 8.68 29.99"/>
  <polygon class="cls-1" points="15.38 27.79 21.12 27.79 21.12 26.4 15.38 26.4 15.38 22.89 21.82 22.89 21.82 21.47 13.75 21.47 13.75 32.91 22.05 32.91 22.05 31.49 15.38 31.49 15.38 27.79"/>
  <polygon class="cls-1" points="23.05 22.89 26.97 22.89 26.97 32.91 28.59 32.91 28.59 22.89 32.51 22.89 32.51 21.47 23.05 21.47 23.05 22.89"/>
  <polygon class="cls-1" points="45.62 30.81 42.47 21.47 40.96 21.47 37.75 30.77 34.65 21.47 32.97 21.47 36.79 32.91 38.54 32.91 41.67 23.77 44.79 32.91 46.5 32.91 50.33 21.47 48.77 21.47 45.62 30.81"/>
  <path class="cls-1" d="m61.71,23c-.55-.53-1.19-.94-1.93-1.23-.73-.29-1.54-.43-2.41-.43s-1.69.15-2.43.44c-.74.29-1.38.71-1.93,1.23-.55.53-.97,1.15-1.27,1.86-.31.71-.46,1.48-.46,2.32s.15,1.61.46,2.32c.3.71.73,1.33,1.27,1.86.54.53,1.19.94,1.94,1.23.75.29,1.56.44,2.43.44s1.68-.14,2.41-.43c.74-.29,1.38-.7,1.93-1.23.55-.53.98-1.15,1.27-1.85.3-.71.45-1.49.45-2.34s-.15-1.63-.45-2.34c-.3-.71-.72-1.33-1.27-1.85Zm-.24,5.94c-.22.53-.53,1-.93,1.4-.4.4-.87.71-1.41.92-.54.22-1.12.33-1.76.33s-1.23-.11-1.77-.33-1.01-.53-1.41-.92c-.4-.4-.72-.86-.94-1.4-.22-.53-.34-1.12-.34-1.75s.11-1.21.34-1.75c.22-.53.54-1,.94-1.4s.87-.71,1.41-.92,1.13-.33,1.77-.33,1.22.11,1.76.33c.54.22,1.01.53,1.41.92s.71.86.93,1.4c.22.53.34,1.12.34,1.75s-.11,1.21-.34,1.75Z"/>
  <path class="cls-1" d="m72.96,28.95c.71-.32,1.25-.77,1.63-1.36.38-.59.57-1.3.57-2.13s-.19-1.54-.57-2.14c-.38-.6-.93-1.06-1.63-1.37-.71-.32-1.56-.47-2.57-.47h-4.46v11.44h1.63v-3.48h2.83c.25,0,.49,0,.73-.03l2.46,3.51h1.78l-2.72-3.84c.11-.04.22-.07.32-.12Zm-2.61-.92h-2.78v-5.15h2.78c1.05,0,1.84.22,2.38.67s.81,1.08.81,1.9-.27,1.45-.81,1.9c-.54.45-1.33.68-2.38.68Z"/>
  <polygon class="cls-1" points="87.52 21.47 85.66 21.47 79.45 27.87 79.45 21.47 77.81 21.47 77.81 32.91 79.45 32.91 79.45 29.95 81.55 27.82 85.92 32.91 87.83 32.91 82.64 26.62 87.52 21.47"/>
</svg>