<?xml version="1.0" encoding="utf-8"?>
<!-- Generator: Adobe Illustrator 28.1.0, SVG Export Plug-In . SVG Version: 6.00 Build 0)  -->
<svg version="1.1" id="Camada_1" xmlns="http://www.w3.org/2000/svg" xmlns:xlink="http://www.w3.org/1999/xlink" x="0px" y="0px"
	 viewBox="0 0 88.3 40" style="enable-background:new 0 0 88.3 40;" xml:space="preserve">
<style type="text/css">
	.st0{fill:#F9FBFE;}
</style>
<g id="Layer_5">
	<path class="st0" d="M15.5,13c0-4.4,2.8-6.8,8-6.9c3.7,0,4.4,2.4,4.4,3.3c0,1.7-2.4,3.5-2.4,3.5s0.1,1.1,2.2,1.1s4.1-1.4,4-4.8
		c0-3.9-4.1-5.7-8.1-5.7c-3.4,0-12.4,0.5-12.3,9.4c0,7.9,15,8.6,15,13.7c0,5.5-6.1,7-8.2,7S15,32.1,15,31.3c0-4.5,4.4-5.7,4.4-5.7
		c0-0.3-0.3-1.8-2-1.8c-4.4,0-6.2,3.8-6.2,7.5c0,3.2,2.2,5.1,5.6,5.1c6.5,0,13.7-3.2,13.7-10.2C30.6,19.7,15.5,18,15.5,13L15.5,13z"
		/>
	<path class="st0" d="M77,30.5c-0.1-0.1-0.2-0.1-0.4,0.1c-0.7,0.6-2.4,2.3-6.3,2.3c-7.1,0-8.4-11.7-8.4-11.7s5.4-4.1,6.3-5.7
		s-1.8-2-1.8-2s-3.8,4.6-6.5,6c0.3-2,2.3-6.6,2.4-9.2s-3.2-2-3.7-1.7c0,1.1-2.9,11.6-4,17.4c-0.6,1-1.5,2.1-2.3,2.1
		c-0.5,0-0.6-0.9-0.6-2.1c0-1.7,0.9-4.4,0.9-6.1c0-1.1-0.5-1.2-1-1.2c-0.1,0-0.6,0-0.7,0c-1.2,0-0.8-1-1.8-1c-3.2,0-7.3,3.5-7.5,8.8
		c-1.1,0.7-2.6,1.6-3.4,1.6c-0.8,0-1-0.8-1-1.4c0-1.1,1.8-7.9,1.8-7.9s2.3-0.6,3.4-0.8c0.8-0.1,1-0.2,1.3-0.6s0.9-1.1,1.4-1.8
		s0-1.2-0.9-1.2c-1.2,0-4.2,0.7-4.2,0.7s1.5-6.4,1.5-6.5S41.2,8.3,41,8.3c-0.6,0-1.6,0.3-2.2,0.5c-1,0.4-1.8,1.6-1.9,2.1
		s-1.3,4.9-1.3,4.9s-6,2-6.8,2.4c0,0-0.1,0.1-0.1,0.1s0.7,2.7,2.1,2.6c1,0,3.9-1.2,3.9-1.2s-1.5,6-1.5,8c0,1.3,0.6,2.8,3.1,2.8
		c2.3,0,4.4-1.2,5.5-2c0.6,1.6,2.1,2,3.1,2c2.2,0,4-1.8,4.2-2c0.3,0.7,1,2,2.6,2c0.9,0,1.8-1,2.5-2c0,0.2,0,0.4,0,0.6
		c0.3,2.5,4,1,4.2,0.7c0.1-1.8,0-5.5,0.8-7.7C60,29.8,63.7,35,70.1,35c3.6,0,5.5-1.1,6.3-1.9C77,32.4,77.2,31.4,77,30.5L77,30.5z
		 M45.8,28c-3.1,0,1-8.1,3.6-8.1C49.5,20.9,49.4,28,45.8,28z"/>
	<path class="st0" d="M71.1,30.4c2.8,0,5-1.9,5.4-2.5c0.5-0.8-0.6-2-0.9-2c-0.9,0.9-1.8,1.9-3.9,1.9c-2.4,0-1.9-2.7-1.9-2.7
		s4.7,0.6,6.6-2.8c0.6-1.1,0.6-2.6,0.4-3.2s-1.6-1.8-3.8-1.7c-2.7,0.2-6.1,3-6.8,6.4C65.6,26.6,66.7,30.5,71.1,30.4L71.1,30.4z
		 M74.1,19.1c0.4,0,0.4,0.7,0.3,1.5c-0.2,1-1.6,3.7-4.3,3.6C70.3,22.6,72.3,19.2,74.1,19.1L74.1,19.1L74.1,19.1z"/>
</g>
</svg>
